<svg width="41" height="49" viewBox="0 0 41 49" fill="none" xmlns="http://www.w3.org/2000/svg">
<path d="M38.8443 16.6589C38.6102 16.802 33.4611 19.7737 33.5195 25.956C33.5843 33.3507 40.059 35.8132 40.1333 35.8412C40.0753 36.0172 39.0982 39.3485 36.7204 42.7888C34.6654 45.7693 32.5368 48.7329 29.1771 48.7948C25.8763 48.8547 24.8125 46.8534 21.0418 46.8534C17.2687 46.8534 16.0878 48.7329 12.9664 48.8547C9.72354 48.9764 7.25464 45.6362 5.18457 42.6721C0.952754 36.606 -2.28279 25.529 2.0618 18.0535C4.21869 14.3409 8.0739 11.9889 12.2569 11.9282C15.4425 11.8685 18.4469 14.0511 20.3955 14.0511C22.3162 14.0511 25.7587 11.5068 29.8164 11.8043C31.4068 11.9212 35.9214 12.3917 38.8443 16.6589ZM27.3127 7.79991C29.036 5.73528 30.1955 2.85992 29.8762 0C27.3959 0.0975058 24.3961 1.63777 22.617 3.7011C21.0239 5.52887 19.6247 8.45627 20.0046 11.2578C22.7692 11.4696 25.5908 9.86582 27.3127 7.79991Z" fill="#191C24"/>
</svg>
