<svg width="56" height="56" viewBox="0 0 56 56" fill="none" xmlns="http://www.w3.org/2000/svg">
<path d="M49.1072 29.8571L33.3572 45.6071C32.8641 46.1002 32.1952 46.3773 31.4978 46.3773C30.8004 46.3773 30.1316 46.1002 29.6384 45.6071C29.1453 45.1139 28.8683 44.4451 28.8683 43.7477C28.8683 43.0503 29.1453 42.3815 29.6384 41.8883L40.9063 30.6249H8.75C8.05381 30.6249 7.38613 30.3483 6.89384 29.856C6.40156 29.3638 6.125 28.6961 6.125 27.9999C6.125 27.3037 6.40156 26.636 6.89384 26.1437C7.38613 25.6515 8.05381 25.3749 8.75 25.3749H40.9063L29.6428 14.1049C29.1497 13.6118 28.8726 12.9429 28.8726 12.2455C28.8726 11.5481 29.1497 10.8793 29.6428 10.3861C30.1359 9.89301 30.8048 9.61597 31.5022 9.61597C32.1996 9.61597 32.8684 9.89301 33.3616 10.3861L49.1116 26.1361C49.3563 26.3803 49.5504 26.6705 49.6827 26.9899C49.8151 27.3094 49.883 27.6518 49.8825 27.9975C49.8821 28.3433 49.8134 28.6855 49.6804 29.0047C49.5473 29.3238 49.3525 29.6135 49.1072 29.8571Z" fill="#191C24"/>
</svg>
