<svg width="48" height="48" viewBox="0 0 48 48" fill="none" xmlns="http://www.w3.org/2000/svg">
<path d="M31.5915 37.4081C32.0141 37.8308 32.2516 38.4041 32.2516 39.0018C32.2516 39.5996 32.0141 40.1729 31.5915 40.5956C31.1688 41.0183 30.5955 41.2557 29.9977 41.2557C29.3999 41.2557 28.8266 41.0183 28.404 40.5956L13.404 25.5956C13.1942 25.3865 13.0278 25.1382 12.9142 24.8647C12.8006 24.5912 12.7422 24.298 12.7422 24.0018C12.7422 23.7057 12.8006 23.4125 12.9142 23.139C13.0278 22.8655 13.1942 22.6171 13.404 22.4081L28.404 7.40808C28.8266 6.98539 29.3999 6.74792 29.9977 6.74792C30.5955 6.74792 31.1688 6.98539 31.5915 7.40808C32.0141 7.83077 32.2516 8.40405 32.2516 9.00183C32.2516 9.5996 32.0141 10.1729 31.5915 10.5956L18.1871 24L31.5915 37.4081Z" fill="#707480"/>
</svg>
