<svg width="17" height="17" viewBox="0 0 17 17" fill="none" xmlns="http://www.w3.org/2000/svg">
<path d="M5.47987 12.4924C5.33872 12.6335 5.25942 12.825 5.25942 13.0246C5.25942 13.2242 5.33872 13.4157 5.47987 13.5568C5.62103 13.698 5.81247 13.7773 6.0121 13.7773C6.21172 13.7773 6.40317 13.698 6.54432 13.5568L11.5535 8.54763C11.6236 8.47782 11.6791 8.39488 11.7171 8.30355C11.755 8.21222 11.7745 8.1143 11.7745 8.0154C11.7745 7.91651 11.755 7.81859 11.7171 7.72726C11.6791 7.63593 11.6236 7.55298 11.5535 7.48318L6.54432 2.474C6.40317 2.33284 6.21172 2.25354 6.0121 2.25354C5.81247 2.25354 5.62103 2.33284 5.47987 2.474C5.33872 2.61515 5.25942 2.8066 5.25942 3.00622C5.25942 3.20584 5.33872 3.39729 5.47987 3.53845L9.9562 8.01478L5.47987 12.4924Z" fill="#707480"/>
</svg>
