<svg width="13" height="12" viewBox="0 0 13 12" fill="none" xmlns="http://www.w3.org/2000/svg">
<path d="M0 11.0832L6.41667 -0.00012207L12.8333 11.0832H0ZM2.0125 9.91654H10.8208L6.41667 2.33321L2.0125 9.91654ZM6.41667 9.33321C6.58194 9.33321 6.72049 9.27731 6.83229 9.1655C6.9441 9.0537 7 8.91516 7 8.74988C7 8.5846 6.9441 8.44606 6.83229 8.33425C6.72049 8.22245 6.58194 8.16654 6.41667 8.16654C6.25139 8.16654 6.11285 8.22245 6.00104 8.33425C5.88924 8.44606 5.83333 8.5846 5.83333 8.74988C5.83333 8.91516 5.88924 9.0537 6.00104 9.1655C6.11285 9.27731 6.25139 9.33321 6.41667 9.33321ZM5.83333 7.58321H7V4.66654H5.83333V7.58321Z" fill="#AC3434"/>
</svg>
