<svg width="64" height="64" viewBox="0 0 64 64" fill="none" xmlns="http://www.w3.org/2000/svg">
<path d="M56 49H55V10C55 9.20435 54.6839 8.44129 54.1213 7.87868C53.5587 7.31607 52.7957 7 52 7H38C37.2043 7 36.4413 7.31607 35.8787 7.87868C35.3161 8.44129 35 9.20435 35 10V19H24C23.2044 19 22.4413 19.3161 21.8787 19.8787C21.3161 20.4413 21 21.2044 21 22V31H12C11.2044 31 10.4413 31.3161 9.87868 31.8787C9.31607 32.4413 9 33.2044 9 34V49H8C7.20435 49 6.44129 49.3161 5.87868 49.8787C5.31607 50.4413 5 51.2043 5 52C5 52.7957 5.31607 53.5587 5.87868 54.1213C6.44129 54.6839 7.20435 55 8 55H56C56.7957 55 57.5587 54.6839 58.1213 54.1213C58.6839 53.5587 59 52.7957 59 52C59 51.2043 58.6839 50.4413 58.1213 49.8787C57.5587 49.3161 56.7957 49 56 49ZM41 13H49V49H41V13ZM27 25H35V49H27V25ZM15 37H21V49H15V37Z" fill="white"/>
</svg>
