<svg width="52" height="52" viewBox="0 0 52 52" fill="none" xmlns="http://www.w3.org/2000/svg">
<path d="M25.9999 4.0625C22.2421 4.0617 18.5472 5.02617 15.2692 6.86346C11.9913 8.70074 9.24021 11.3492 7.27977 14.5551C5.31933 17.7609 4.21524 21.4165 4.07334 25.1716C3.93144 28.9267 4.75649 32.6552 6.46939 35.9998L4.26549 42.5872C4.02381 43.3043 3.98723 44.0747 4.15987 44.8114C4.33251 45.5482 4.70752 46.2221 5.24261 46.7572C5.77771 47.2923 6.45163 47.6673 7.18842 47.84C7.9252 48.0126 8.69556 47.9761 9.41267 47.7344L16 45.5386C18.9535 47.0464 22.2104 47.865 25.5259 47.9329C28.8413 48.0008 32.129 47.3161 35.1417 45.9304C38.1545 44.5447 40.8138 42.494 42.9199 39.9326C45.026 37.3711 46.524 34.3655 47.3012 31.1418C48.0785 27.918 48.1148 24.56 47.4074 21.3202C46.6999 18.0804 45.2673 15.0431 43.217 12.4368C41.1667 9.83039 38.5523 7.72274 35.5702 6.27227C32.5881 4.82181 29.316 4.06629 25.9999 4.0625ZM25.9999 43.0625C23.0003 43.0636 20.0535 42.274 17.4564 40.7733C17.0861 40.5585 16.6658 40.445 16.2377 40.4442C15.9753 40.4447 15.7147 40.4872 15.4658 40.5702L9.41471 42.5872L11.4317 36.5361C11.541 36.2085 11.5793 35.8615 11.5443 35.5179C11.5093 35.1744 11.4017 34.8422 11.2286 34.5434C9.34764 31.2917 8.59237 27.5101 9.07997 23.7853C9.56756 20.0605 11.2708 16.6008 13.9253 13.9428C16.5799 11.2848 20.0375 9.5771 23.7617 9.08471C27.4858 8.59232 31.2684 9.34271 34.5225 11.2195C37.7767 13.0963 40.3205 15.9945 41.7594 19.4646C43.1983 22.9347 43.4517 26.7826 42.4805 30.4114C41.5092 34.0403 39.3676 37.2472 36.3877 39.5346C33.4079 41.822 29.7564 43.0621 25.9999 43.0625Z" fill="#707480"/>
</svg>
