<svg width="72" height="72" viewBox="0 0 72 72" fill="none" xmlns="http://www.w3.org/2000/svg">
<g filter="url(#filter0_i_66_2317)">
<path d="M37.125 5.625C29.3699 5.63319 21.9348 8.71751 16.4512 14.2012C10.9675 19.6848 7.88319 27.1199 7.875 34.875V58.5C7.875 59.9918 8.46763 61.4226 9.52252 62.4775C10.5774 63.5324 12.0082 64.125 13.5 64.125H37.125C44.8826 64.125 52.3224 61.0433 57.8079 55.5579C63.2933 50.0724 66.375 42.6326 66.375 34.875C66.375 27.1174 63.2933 19.6776 57.8079 14.1921C52.3224 8.70669 44.8826 5.625 37.125 5.625ZM37.125 57.375H14.625V34.875C14.625 30.4249 15.9446 26.0748 18.4169 22.3747C20.8893 18.6746 24.4033 15.7907 28.5146 14.0877C32.626 12.3847 37.15 11.9392 41.5145 12.8073C45.8791 13.6755 49.8882 15.8184 53.0349 18.9651C56.1816 22.1118 58.3245 26.1209 59.1927 30.4855C60.0608 34.85 59.6153 39.374 57.9123 43.4854C56.2093 47.5967 53.3254 51.1107 49.6253 53.5831C45.9252 56.0554 41.5751 57.375 37.125 57.375ZM34.875 36C34.875 36.89 34.6111 37.76 34.1166 38.5001C33.6221 39.2401 32.9193 39.8169 32.0971 40.1575C31.2748 40.4981 30.37 40.5872 29.4971 40.4135C28.6242 40.2399 27.8224 39.8113 27.193 39.182C26.5637 38.5526 26.1351 37.7508 25.9615 36.8779C25.7878 36.005 25.8769 35.1002 26.2175 34.2779C26.5581 33.4557 27.1349 32.7529 27.8749 32.2584C28.615 31.7639 29.485 31.5 30.375 31.5C31.5685 31.5 32.7131 31.9741 33.557 32.818C34.4009 33.6619 34.875 34.8065 34.875 36ZM48.375 36C48.375 36.89 48.1111 37.76 47.6166 38.5001C47.1221 39.2401 46.4193 39.8169 45.5971 40.1575C44.7748 40.4981 43.87 40.5872 42.9971 40.4135C42.1242 40.2399 41.3224 39.8113 40.693 39.182C40.0637 38.5526 39.6351 37.7508 39.4615 36.8779C39.2878 36.005 39.3769 35.1002 39.7175 34.2779C40.0581 33.4557 40.6349 32.7529 41.3749 32.2584C42.115 31.7639 42.985 31.5 43.875 31.5C45.0685 31.5 46.2131 31.9741 47.057 32.818C47.9009 33.6619 48.375 34.8065 48.375 36Z" fill="#07112E" fill-opacity="0.06"/>
</g>
<defs>
<filter id="filter0_i_66_2317" x="0" y="0" width="72" height="76" filterUnits="userSpaceOnUse" color-interpolation-filters="sRGB">
<feFlood flood-opacity="0" result="BackgroundImageFix"/>
<feBlend mode="normal" in="SourceGraphic" in2="BackgroundImageFix" result="shape"/>
<feColorMatrix in="SourceAlpha" type="matrix" values="0 0 0 0 0 0 0 0 0 0 0 0 0 0 0 0 0 0 127 0" result="hardAlpha"/>
<feOffset dy="4"/>
<feGaussianBlur stdDeviation="5"/>
<feComposite in2="hardAlpha" operator="arithmetic" k2="-1" k3="1"/>
<feColorMatrix type="matrix" values="0 0 0 0 0.0431373 0 0 0 0 0.0745098 0 0 0 0 0.141176 0 0 0 0.64 0"/>
<feBlend mode="normal" in2="shape" result="effect1_innerShadow_66_2317"/>
</filter>
</defs>
</svg>
