<svg width="40" height="34" viewBox="0 0 40 34" fill="none" xmlns="http://www.w3.org/2000/svg">
<g filter="url(#filter0_d_51_496)">
<path d="M30.81 10.3995L18.7725 22.437C18.4913 22.7181 18.1099 22.876 17.7122 22.876C17.3146 22.876 16.9332 22.7181 16.6519 22.437L9.93755 15.687C9.65674 15.4057 9.49902 15.0245 9.49902 14.6271C9.49902 14.2297 9.65674 13.8485 9.93755 13.5673L11.8125 11.6923C12.0937 11.4123 12.4742 11.2552 12.871 11.2552C13.2677 11.2552 13.6483 11.4123 13.9294 11.6923L17.7497 15.3973L26.821 6.43759C27.1021 6.15736 27.4829 6 27.8799 6C28.2769 6 28.6576 6.15736 28.9388 6.43759L30.8091 8.26946C30.9498 8.40885 31.0614 8.5747 31.1377 8.75745C31.2139 8.94021 31.2532 9.13625 31.2533 9.33427C31.2534 9.53229 31.2142 9.72836 31.1382 9.91118C31.0621 10.094 30.9506 10.26 30.81 10.3995Z" fill="white"/>
</g>
<defs>
<filter id="filter0_d_51_496" x="-2" y="-4.12329" width="44" height="44" filterUnits="userSpaceOnUse" color-interpolation-filters="sRGB">
<feFlood flood-opacity="0" result="BackgroundImageFix"/>
<feColorMatrix in="SourceAlpha" type="matrix" values="0 0 0 0 0 0 0 0 0 0 0 0 0 0 0 0 0 0 127 0" result="hardAlpha"/>
<feOffset dy="4"/>
<feGaussianBlur stdDeviation="5"/>
<feColorMatrix type="matrix" values="0 0 0 0 0.0431373 0 0 0 0 0.0745098 0 0 0 0 0.141176 0 0 0 0.24 0"/>
<feBlend mode="normal" in2="BackgroundImageFix" result="effect1_dropShadow_51_496"/>
<feBlend mode="normal" in="SourceGraphic" in2="effect1_dropShadow_51_496" result="shape"/>
</filter>
</defs>
</svg>
