<svg width="56" height="56" viewBox="0 0 56 56" fill="none" xmlns="http://www.w3.org/2000/svg">
<path d="M45.6071 41.8925C46.1002 42.3856 46.3773 43.0544 46.3773 43.7518C46.3773 44.4492 46.1002 45.1181 45.6071 45.6112C45.114 46.1044 44.4451 46.3814 43.7477 46.3814C43.0503 46.3814 42.3815 46.1044 41.8883 45.6112L27.9999 31.7184L14.1071 45.6068C13.614 46.1 12.9451 46.377 12.2477 46.377C11.5503 46.377 10.8815 46.1 10.3883 45.6068C9.89521 45.1137 9.61816 44.4449 9.61816 43.7475C9.61816 43.0501 9.89521 42.3812 10.3883 41.8881L24.2812 27.9997L10.3927 14.1068C9.89958 13.6137 9.62254 12.9449 9.62254 12.2475C9.62254 11.5501 9.89958 10.8812 10.3927 10.3881C10.8859 9.89495 11.5547 9.61791 12.2521 9.61791C12.9495 9.61791 13.6183 9.89495 14.1115 10.3881L27.9999 24.2809L41.8927 10.3859C42.3859 9.89276 43.0547 9.61572 43.7521 9.61572C44.4495 9.61572 45.1183 9.89276 45.6115 10.3859C46.1046 10.879 46.3816 11.5479 46.3816 12.2453C46.3816 12.9427 46.1046 13.6115 45.6115 14.1047L31.7187 27.9997L45.6071 41.8925Z" fill="white"/>
</svg>
