<svg width="17" height="17" viewBox="0 0 17 17" fill="none" xmlns="http://www.w3.org/2000/svg">
<path d="M8.26548 1.2522C6.53896 1.25402 4.88369 1.94068 3.66286 3.16151C2.44203 4.38234 1.75536 6.03762 1.75354 7.76414V13.0238C1.75354 13.3559 1.88548 13.6744 2.12033 13.9093C2.35518 14.1441 2.67371 14.2761 3.00584 14.2761H8.26548C9.99255 14.2761 11.6489 13.59 12.8701 12.3688C14.0913 11.1475 14.7774 9.49121 14.7774 7.76414C14.7774 6.03706 14.0913 4.38073 12.8701 3.1595C11.6489 1.93827 9.99255 1.2522 8.26548 1.2522ZM8.26548 12.7733H3.25629V7.76414C3.2563 6.77341 3.55008 5.80494 4.10049 4.98118C4.65091 4.15743 5.43324 3.51539 6.34855 3.13625C7.26386 2.75712 8.27103 2.65792 9.24272 2.8512C10.2144 3.04448 11.107 3.52156 11.8075 4.22211C12.5081 4.92265 12.9851 5.81521 13.1784 6.78689C13.3717 7.75858 13.2725 8.76576 12.8934 9.68107C12.5142 10.5964 11.8722 11.3787 11.0484 11.9291C10.2247 12.4795 9.2562 12.7733 8.26548 12.7733ZM7.76456 8.01459C7.76456 8.21274 7.7058 8.40643 7.59572 8.57119C7.48564 8.73594 7.32917 8.86434 7.14611 8.94017C6.96305 9.016 6.76161 9.03584 6.56727 8.99718C6.37294 8.95853 6.19443 8.86311 6.05432 8.723C5.91421 8.58289 5.81879 8.40438 5.78014 8.21004C5.74148 8.01571 5.76132 7.81427 5.83715 7.63121C5.91297 7.44815 6.04138 7.29168 6.20613 7.1816C6.37088 7.07151 6.56458 7.01276 6.76272 7.01276C7.02843 7.01276 7.28325 7.11831 7.47113 7.30619C7.65901 7.49407 7.76456 7.74889 7.76456 8.01459ZM10.7701 8.01459C10.7701 8.21274 10.7113 8.40643 10.6012 8.57119C10.4911 8.73594 10.3347 8.86434 10.1516 8.94017C9.96856 9.016 9.76712 9.03584 9.57278 8.99718C9.37845 8.95853 9.19994 8.86311 9.05983 8.723C8.91972 8.58289 8.8243 8.40438 8.78565 8.21004C8.74699 8.01571 8.76683 7.81427 8.84266 7.63121C8.91848 7.44815 9.04689 7.29168 9.21164 7.1816C9.37639 7.07151 9.57009 7.01276 9.76823 7.01276C10.0339 7.01276 10.2888 7.11831 10.4766 7.30619C10.6645 7.49407 10.7701 7.74889 10.7701 8.01459Z" fill="#32B453"/>
</svg>
