<svg width="56" height="56" viewBox="0 0 56 56" fill="none" xmlns="http://www.w3.org/2000/svg">
<path d="M31.5 28C31.5 28.6922 31.2947 29.3689 30.9101 29.9445C30.5256 30.5201 29.9789 30.9687 29.3394 31.2336C28.6999 31.4985 27.9961 31.5678 27.3172 31.4327C26.6383 31.2977 26.0146 30.9644 25.5251 30.4749C25.0356 29.9854 24.7023 29.3617 24.5673 28.6828C24.4322 28.0039 24.5015 27.3001 24.7664 26.6606C25.0313 26.0211 25.4799 25.4744 26.0555 25.0899C26.6311 24.7053 27.3078 24.5 28 24.5C28.9283 24.5 29.8185 24.8687 30.4749 25.5251C31.1313 26.1815 31.5 27.0717 31.5 28ZM13.125 24.5C12.4328 24.5 11.7561 24.7053 11.1805 25.0899C10.6049 25.4744 10.1563 26.0211 9.89142 26.6606C9.62652 27.3001 9.5572 28.0039 9.69225 28.6828C9.8273 29.3617 10.1606 29.9854 10.6501 30.4749C11.1396 30.9644 11.7633 31.2977 12.4422 31.4327C13.1211 31.5678 13.8249 31.4985 14.4644 31.2336C15.1039 30.9687 15.6506 30.5201 16.0351 29.9445C16.4197 29.3689 16.625 28.6922 16.625 28C16.625 27.0717 16.2563 26.1815 15.5999 25.5251C14.9435 24.8687 14.0533 24.5 13.125 24.5ZM42.875 24.5C42.1828 24.5 41.5061 24.7053 40.9305 25.0899C40.3549 25.4744 39.9063 26.0211 39.6414 26.6606C39.3765 27.3001 39.3072 28.0039 39.4423 28.6828C39.5773 29.3617 39.9106 29.9854 40.4001 30.4749C40.8896 30.9644 41.5133 31.2977 42.1922 31.4327C42.8711 31.5678 43.5749 31.4985 44.2144 31.2336C44.8539 30.9687 45.4006 30.5201 45.7851 29.9445C46.1697 29.3689 46.375 28.6922 46.375 28C46.375 27.0717 46.0063 26.1815 45.3499 25.5251C44.6935 24.8687 43.8033 24.5 42.875 24.5Z" fill="#707480"/>
</svg>
