<svg width="52" height="52" viewBox="0 0 52 52" fill="none" xmlns="http://www.w3.org/2000/svg">
<path d="M44.6875 22.75V42.25C44.6875 43.3274 44.2595 44.3607 43.4976 45.1226C42.7358 45.8845 41.7024 46.3125 40.625 46.3125H11.375C10.2976 46.3125 9.26425 45.8845 8.50238 45.1226C7.74051 44.3607 7.3125 43.3274 7.3125 42.25V22.75C7.3125 21.6725 7.74051 20.6392 8.50238 19.8773C9.26425 19.1155 10.2976 18.6875 11.375 18.6875H15.4375C16.084 18.6875 16.704 18.9443 17.1611 19.4014C17.6182 19.8585 17.875 20.4785 17.875 21.125C17.875 21.7714 17.6182 22.3914 17.1611 22.8485C16.704 23.3057 16.084 23.5625 15.4375 23.5625H12.1875V41.4375H39.8125V23.5625H36.5625C35.916 23.5625 35.296 23.3057 34.8389 22.8485C34.3818 22.3914 34.125 21.7714 34.125 21.125C34.125 20.4785 34.3818 19.8585 34.8389 19.4014C35.296 18.9443 35.916 18.6875 36.5625 18.6875H40.625C41.7024 18.6875 42.7358 19.1155 43.4976 19.8773C44.2595 20.6392 44.6875 21.6725 44.6875 22.75ZM19.5995 14.7245L23.5625 10.7656V27.625C23.5625 28.2714 23.8193 28.8914 24.2764 29.3485C24.7335 29.8057 25.3535 30.0625 26 30.0625C26.6465 30.0625 27.2665 29.8057 27.7236 29.3485C28.1807 28.8914 28.4375 28.2714 28.4375 27.625V10.7656L32.4005 14.7306C32.6272 14.9573 32.8964 15.1372 33.1926 15.2599C33.4889 15.3826 33.8064 15.4458 34.127 15.4458C34.4477 15.4458 34.7652 15.3826 35.0614 15.2599C35.3577 15.1372 35.6269 14.9573 35.8536 14.7306C36.0803 14.5039 36.2602 14.2347 36.3829 13.9384C36.5056 13.6422 36.5688 13.3247 36.5688 13.004C36.5688 12.6834 36.5056 12.3659 36.3829 12.0696C36.2602 11.7734 36.0803 11.5042 35.8536 11.2775L27.7286 3.15247C27.5021 2.92523 27.2331 2.74493 26.9368 2.6219C26.6405 2.49888 26.3228 2.43555 26.002 2.43555C25.6812 2.43555 25.3636 2.49888 25.0673 2.6219C24.771 2.74493 24.5019 2.92523 24.2755 3.15247L16.1505 11.2775C15.9237 11.5042 15.7439 11.7734 15.6212 12.0696C15.4985 12.3659 15.4353 12.6834 15.4353 13.004C15.4353 13.6516 15.6926 14.2727 16.1505 14.7306C16.6084 15.1885 17.2294 15.4458 17.877 15.4458C18.5246 15.4458 19.1457 15.1885 19.6036 14.7306L19.5995 14.7245Z" fill="#707480"/>
</svg>
