<svg width="64" height="64" viewBox="0 0 64 64" fill="none" xmlns="http://www.w3.org/2000/svg">
<path d="M62.3234 29.9078C62.0016 29.3441 61.5705 28.8503 61.0553 28.4553C60.5402 28.0604 59.9514 27.7722 59.3234 27.6078C57.8223 27.2185 56.2792 27.0145 54.7284 27.0003C55.2918 23.4893 55.0351 19.8956 53.9784 16.5003C53.5978 15.3078 52.7867 14.2998 51.7034 13.6726C50.6201 13.0455 49.3421 12.8441 48.1184 13.1078C45.8123 13.6167 43.6026 14.4919 41.5734 15.7003C39.9418 12.7038 37.7024 10.0811 34.9984 8.00029C34.1318 7.35386 33.0796 7.00464 31.9984 7.00464C30.9173 7.00464 29.8651 7.35386 28.9984 8.00029C26.2945 10.0811 24.055 12.7038 22.4234 15.7003C20.3968 14.4918 18.1897 13.6157 15.8859 13.1053C14.6619 12.8417 13.3837 13.0435 12.3003 13.6711C11.2169 14.2988 10.4061 15.3074 10.0259 16.5003C8.96929 19.8956 8.71259 23.4893 9.27594 27.0003C7.72271 27.0139 6.17701 27.2179 4.67344 27.6078C4.0455 27.7722 3.4567 28.0604 2.94156 28.4553C2.42642 28.8503 1.99529 29.3441 1.67344 29.9078C1.34062 30.4808 1.12503 31.1143 1.03919 31.7713C0.953359 32.4284 0.998991 33.096 1.17344 33.7353C2.06094 37.0253 4.77344 43.2753 12.9584 48.1653C21.0384 53.0003 28.1884 53.0003 32.0184 53.0003C35.8484 53.0003 42.9584 53.0003 51.0359 48.1653C59.2209 43.2753 61.9334 37.0253 62.8209 33.7353C62.9958 33.0962 63.0418 32.4287 62.9564 31.7716C62.871 31.1145 62.6558 30.481 62.3234 29.9078ZM16.0384 43.0128C10.4659 39.6828 8.20094 35.7303 7.28844 33.1753C8.49036 32.9833 9.71179 32.9447 10.9234 33.0603C11.5268 34.5848 12.2412 36.0629 13.0609 37.4828C14.4347 39.8573 16.0781 42.0653 17.9584 44.0628C17.3234 43.7503 16.6834 43.4003 16.0384 43.0128ZM19.7484 36.8178C19.2234 36.0678 18.7184 35.3178 18.2484 34.4953C14.3409 27.6753 14.7084 22.2353 15.4984 19.1903C17.1377 19.6715 18.6964 20.3935 20.1234 21.3328C19.3608 24.0875 18.9822 26.9344 18.9984 29.7928C18.9875 32.155 19.2391 34.5111 19.7484 36.8178ZM31.9984 46.3178C29.5684 44.3003 24.9984 39.2478 24.9984 29.7853C24.9984 20.4303 29.4984 15.3603 31.9984 13.2653C34.4984 15.3603 38.9984 20.4303 38.9984 29.7853C38.9984 39.2503 34.4284 44.3078 31.9984 46.3253V46.3178ZM44.2484 36.8178C44.7578 34.5111 45.0093 32.155 44.9984 29.7928C45.0147 26.9344 44.6361 24.0875 43.8734 21.3328C45.3005 20.3929 46.8591 19.67 48.4984 19.1878C49.2809 22.2353 49.6484 27.6878 45.7334 34.4953C45.2734 35.3078 44.7684 36.0803 44.2484 36.8178ZM47.9634 43.0128C47.3234 43.3953 46.6909 43.7403 46.0684 44.0528C47.9412 42.0573 49.5778 39.8528 50.9459 37.4828C51.7657 36.0629 52.4801 34.5848 53.0834 33.0603C54.2951 32.9447 55.5165 32.9833 56.7184 33.1753C55.7959 35.7303 53.5309 39.6828 47.9584 43.0128H47.9634Z" fill="white"/>
</svg>
