<svg width="48" height="48" viewBox="0 0 48 48" fill="none" xmlns="http://www.w3.org/2000/svg">
<path d="M47.04 24.5456C47.04 22.8437 46.8873 21.2074 46.6036 19.6365H24V28.931H36.9164C36.3491 31.9201 34.6473 34.451 32.0945 36.1528V42.1964H39.8836C44.4218 38.0074 47.04 31.8546 47.04 24.5456Z" fill="#4285F4"/>
<path d="M23.9997 47.9999C30.4797 47.9999 35.9124 45.8618 39.8833 42.1963L32.0942 36.1527C29.956 37.5927 27.2288 38.4654 23.9997 38.4654C17.7597 38.4654 12.4579 34.2545 10.5597 28.5818H2.57422V34.7781C6.52331 42.6109 14.6179 47.9999 23.9997 47.9999Z" fill="#34A853"/>
<path d="M10.56 28.56C10.08 27.12 9.79636 25.5927 9.79636 24C9.79636 22.4073 10.08 20.88 10.56 19.44V13.2437H2.57455C0.938182 16.4727 0 20.1164 0 24C0 27.8836 0.938182 31.5273 2.57455 34.7563L8.79273 29.9127L10.56 28.56Z" fill="#FBBC05"/>
<path d="M23.9997 9.55635C27.5342 9.55635 30.676 10.7782 33.1851 13.1345L40.0579 6.26181C35.8906 2.37818 30.4797 0 23.9997 0C14.6179 0 6.52331 5.38908 2.57422 13.2436L10.5597 19.44C12.4579 13.7672 17.7597 9.55635 23.9997 9.55635Z" fill="#EA4335"/>
</svg>
