<svg width="52" height="52" viewBox="0 0 52 52" fill="none" xmlns="http://www.w3.org/2000/svg">
<path d="M36.1562 7.3125C32.0755 7.3125 28.4538 8.92328 26 11.6919C23.5462 8.92328 19.9245 7.3125 15.8438 7.3125C12.2895 7.3168 8.88208 8.73062 6.36885 11.2438C3.85562 13.7571 2.4418 17.1645 2.4375 20.7188C2.4375 35.4128 23.9302 47.1534 24.8442 47.647C25.1994 47.8383 25.5966 47.9385 26 47.9385C26.4034 47.9385 26.8006 47.8383 27.1558 47.647C28.0698 47.1534 49.5625 35.4128 49.5625 20.7188C49.5582 17.1645 48.1444 13.7571 45.6311 11.2438C43.1179 8.73062 39.7105 7.3168 36.1562 7.3125ZM35.0411 36.2294C32.2121 38.63 29.1879 40.7906 26 42.6888C22.8121 40.7906 19.7879 38.63 16.9589 36.2294C12.5572 32.4533 7.3125 26.6947 7.3125 20.7188C7.3125 18.4561 8.21133 16.2862 9.81124 14.6862C11.4112 13.0863 13.5811 12.1875 15.8438 12.1875C19.4594 12.1875 22.4859 14.0969 23.7433 17.1722C23.9263 17.6205 24.2387 18.0041 24.6406 18.2742C25.0425 18.5443 25.5158 18.6885 26 18.6885C26.4842 18.6885 26.9575 18.5443 27.3594 18.2742C27.7613 18.0041 28.0737 17.6205 28.2567 17.1722C29.5141 14.0969 32.5406 12.1875 36.1562 12.1875C38.4189 12.1875 40.5888 13.0863 42.1888 14.6862C43.7887 16.2862 44.6875 18.4561 44.6875 20.7188C44.6875 26.6947 39.4428 32.4533 35.0411 36.2294Z" fill="#DD4A4A"/>
<path d="M35.0411 36.2294C32.2121 38.63 29.1879 40.7906 26 42.6888C22.8121 40.7906 19.7879 38.63 16.9589 36.2294C12.5572 32.4533 7.3125 26.6947 7.3125 20.7188C7.3125 18.4561 8.21133 16.2862 9.81124 14.6862C11.4112 13.0863 13.5811 12.1875 15.8438 12.1875C19.4594 12.1875 22.4859 14.0969 23.7433 17.1722C23.9263 17.6205 24.2387 18.0041 24.6406 18.2742C25.0425 18.5443 25.5158 18.6885 26 18.6885C26.4842 18.6885 26.9575 18.5443 27.3594 18.2742C27.7613 18.0041 28.0737 17.6205 28.2567 17.1722C29.5141 14.0969 32.5406 12.1875 36.1562 12.1875C38.4189 12.1875 40.5888 13.0863 42.1888 14.6862C43.7887 16.2862 44.6875 18.4561 44.6875 20.7188C44.6875 26.6947 39.4428 32.4533 35.0411 36.2294Z" fill="#DD4A4A"/>
</svg>
