<svg width="81" height="83" viewBox="0 0 81 83" fill="none" xmlns="http://www.w3.org/2000/svg">
<g filter="url(#filter0_d_66_2308)">
<path d="M66.6019 32.1469L44.1019 9.64692C43.0471 8.5924 41.6166 8 40.125 8C38.6335 8 37.203 8.5924 36.1482 9.64692L13.6482 32.1469C13.1237 32.6682 12.708 33.2883 12.425 33.9715C12.1421 34.6547 11.9977 35.3872 12 36.1266V63.1266C12 64.0217 12.3556 64.8802 12.9885 65.5131C13.6215 66.146 14.4799 66.5016 15.375 66.5016H33.375C34.2701 66.5016 35.1286 66.146 35.7615 65.5131C36.3944 64.8802 36.75 64.0217 36.75 63.1266V48.5016H43.5V63.1266C43.5 64.0217 43.8556 64.8802 44.4885 65.5131C45.1215 66.146 45.9799 66.5016 46.875 66.5016H64.875C65.7701 66.5016 66.6286 66.146 67.2615 65.5131C67.8944 64.8802 68.25 64.0217 68.25 63.1266V36.1266C68.2524 35.3872 68.1079 34.6547 67.825 33.9715C67.5421 33.2883 67.1264 32.6682 66.6019 32.1469ZM61.5 59.7516H50.25V45.1266C50.25 44.2315 49.8944 43.3731 49.2615 42.7401C48.6286 42.1072 47.7701 41.7516 46.875 41.7516H33.375C32.4799 41.7516 31.6215 42.1072 30.9885 42.7401C30.3556 43.3731 30 44.2315 30 45.1266V59.7516H18.75V36.5907L40.125 15.2157L61.5 36.5907V59.7516Z" fill="white"/>
</g>
<defs>
<filter id="filter0_d_66_2308" x="-7.875" y="-5.62402" width="96" height="96" filterUnits="userSpaceOnUse" color-interpolation-filters="sRGB">
<feFlood flood-opacity="0" result="BackgroundImageFix"/>
<feColorMatrix in="SourceAlpha" type="matrix" values="0 0 0 0 0 0 0 0 0 0 0 0 0 0 0 0 0 0 127 0" result="hardAlpha"/>
<feOffset dy="4"/>
<feGaussianBlur stdDeviation="6"/>
<feColorMatrix type="matrix" values="0 0 0 0 0.0431373 0 0 0 0 0.0745098 0 0 0 0 0.141176 0 0 0 0.24 0"/>
<feBlend mode="normal" in2="BackgroundImageFix" result="effect1_dropShadow_66_2308"/>
<feBlend mode="normal" in="SourceGraphic" in2="effect1_dropShadow_66_2308" result="shape"/>
</filter>
</defs>
</svg>
