<svg width="12" height="12" viewBox="0 0 12 12" fill="none" xmlns="http://www.w3.org/2000/svg">
<path d="M1.875 0C1.37772 0 0.900806 0.197544 0.549175 0.549175C0.197544 0.900806 0 1.37772 0 1.875V9.375C0 9.87228 0.197544 10.3492 0.549175 10.7008C0.900806 11.0525 1.37772 11.25 1.875 11.25H5C5.16576 11.25 5.32473 11.1842 5.44194 11.0669C5.55915 10.9497 5.625 10.7908 5.625 10.625C5.625 10.4592 5.55915 10.3003 5.44194 10.1831C5.32473 10.0658 5.16576 10 5 10H1.875C1.70924 10 1.55027 9.93415 1.43306 9.81694C1.31585 9.69973 1.25 9.54076 1.25 9.375V1.875C1.25 1.70924 1.31585 1.55027 1.43306 1.43306C1.55027 1.31585 1.70924 1.25 1.875 1.25H5C5.16576 1.25 5.32473 1.18415 5.44194 1.06694C5.55915 0.949731 5.625 0.79076 5.625 0.625C5.625 0.45924 5.55915 0.300268 5.44194 0.183058C5.32473 0.065848 5.16576 0 5 0H1.875Z" fill="#F6F6F6"/>
<path d="M7.68313 2.68299C7.80033 2.56582 7.95927 2.5 8.125 2.5C8.29073 2.5 8.44967 2.56582 8.56688 2.68299L11.0669 5.18299C11.184 5.3002 11.2499 5.45914 11.2499 5.62487C11.2499 5.79059 11.184 5.94954 11.0669 6.06674L8.56688 8.56674C8.449 8.68059 8.29112 8.74359 8.12725 8.74216C7.96338 8.74074 7.80662 8.67501 7.69074 8.55913C7.57486 8.44325 7.50913 8.28649 7.5077 8.12262C7.50628 7.95874 7.56928 7.80087 7.68313 7.68299L9.11625 6.24987H4.375C4.20924 6.24987 4.05027 6.18402 3.93306 6.06681C3.81585 5.9496 3.75 5.79063 3.75 5.62487C3.75 5.45911 3.81585 5.30014 3.93306 5.18293C4.05027 5.06571 4.20924 4.99987 4.375 4.99987H9.11625L7.68313 3.56674C7.56596 3.44954 7.50013 3.29059 7.50013 3.12487C7.50013 2.95914 7.56596 2.8002 7.68313 2.68299Z" fill="#F6F6F6"/>
</svg>
