<svg width="246" height="235" viewBox="0 0 246 235" fill="none" xmlns="http://www.w3.org/2000/svg">
<path fill-rule="evenodd" clip-rule="evenodd" d="M136.322 51.2566C128.392 51.2566 120.539 52.8172 113.213 55.8492C105.886 58.8811 99.2288 63.3255 93.6217 68.9277C88.0141 74.5304 83.5661 81.1815 80.5311 88.5014C78.4041 93.6319 77.0007 99.0209 76.3514 104.513C75.8411 108.83 73.4806 112.816 69.5984 114.756L58.1154 120.492C54.2331 122.431 51.686 126.418 52.1963 130.734C52.8456 136.227 54.2491 141.615 56.3761 146.746C59.4112 154.066 63.8592 160.717 69.4663 166.32C75.0739 171.922 81.7314 176.366 89.0576 179.398C96.3844 182.43 104.237 183.991 112.167 183.991C120.097 183.991 127.95 182.43 135.276 179.398C142.603 176.366 149.26 171.922 154.868 166.32C160.475 160.717 164.923 154.066 167.958 146.746C170.085 141.615 171.488 136.227 172.138 130.734C172.648 126.418 175.008 122.431 178.891 120.492L190.374 114.756C194.256 112.816 196.803 108.83 196.293 104.513C195.644 99.0209 194.24 93.6319 192.113 88.5014C189.078 81.1815 184.63 74.5304 179.023 68.9277C173.415 63.3255 166.758 58.8811 159.431 55.8492C152.105 52.8172 144.252 51.2566 136.322 51.2566ZM164.217 100.046C164.826 101.514 165.316 103.024 165.685 104.562C166.699 108.789 164.062 112.816 160.18 114.756L148.697 120.492C144.814 122.431 142.543 126.459 141.53 130.685C141.161 132.223 140.671 133.733 140.063 135.202C138.545 138.861 136.321 142.187 133.517 144.989C130.713 147.79 127.385 150.012 123.722 151.528C120.058 153.044 116.132 153.824 112.167 153.824C108.202 153.824 104.276 153.044 100.612 151.528C96.949 150.012 93.6206 147.79 90.8168 144.989C88.0129 142.187 85.7887 138.861 84.2715 135.202C83.6628 133.733 83.173 132.223 82.804 130.685C81.7909 126.459 84.4271 122.431 88.3093 120.492L99.7918 114.756C103.675 112.816 105.946 108.789 106.959 104.562C107.328 103.024 107.818 101.514 108.426 100.046C109.944 96.386 112.168 93.0605 114.972 90.2594C117.776 87.4577 121.104 85.2361 124.767 83.7201C128.431 82.204 132.357 81.4234 136.322 81.4234C140.287 81.4234 144.214 82.204 147.877 83.7201C151.54 85.2361 154.868 87.4577 157.672 90.2594C160.476 93.0605 162.7 96.386 164.217 100.046Z" fill="#32B453"/>
<path fill-rule="evenodd" clip-rule="evenodd" d="M136.322 2.98975C122.048 2.98975 107.913 5.79876 94.7253 11.2565C81.5374 16.7142 69.5549 24.7137 59.4609 34.7982C49.3676 44.8827 41.361 56.8547 35.8985 70.0306C31.3428 81.0189 28.631 92.6657 27.8561 104.502C27.5722 108.839 25.1706 112.816 21.2881 114.756L9.80552 120.492C5.92295 122.432 3.4171 126.409 3.70107 130.746C4.476 142.583 7.18779 154.229 11.7434 165.217C17.2059 178.393 25.2126 190.365 35.3061 200.45C45.3996 210.534 57.3825 218.533 70.5704 223.991C83.7577 229.449 97.8924 232.258 112.167 232.258C126.442 232.258 140.576 229.449 153.764 223.991C166.951 218.533 178.935 210.534 189.028 200.45C199.121 190.365 207.128 178.393 212.591 165.217C217.146 154.229 219.858 142.583 220.633 130.746C220.917 126.409 223.318 122.432 227.201 120.492L238.683 114.756C242.566 112.816 245.072 108.839 244.788 104.502C244.013 92.6657 241.301 81.0189 236.746 70.0306C231.283 56.8547 223.276 44.8827 213.183 34.7982C203.089 24.7137 191.106 16.7142 177.919 11.2565C164.731 5.79876 150.596 2.98975 136.322 2.98975ZM190.35 130.741C190.743 126.412 193.125 122.432 197.007 120.492L208.489 114.756C212.372 112.816 214.898 108.835 214.505 104.507C213.79 96.6349 211.888 88.9023 208.85 81.5754C204.905 72.0591 199.123 63.4128 191.832 56.1294C184.543 48.8461 175.889 43.0687 166.364 39.127C156.84 35.1854 146.631 33.1566 136.322 33.1566C126.012 33.1566 115.805 35.1854 106.28 39.127C96.7551 43.0687 88.101 48.8461 80.8114 56.1294C73.5218 63.4128 67.7391 72.0591 63.7939 81.5754C60.7561 88.9023 58.8533 96.6349 58.1388 104.507C57.7458 108.835 55.3644 112.816 51.4819 114.756L39.9993 120.492C36.1168 122.432 33.591 126.412 33.9839 130.741C34.6984 138.613 36.601 146.345 39.6388 153.673C43.584 163.189 49.3665 171.835 56.6563 179.118C63.9461 186.401 72.6002 192.179 82.1249 196.121C91.6491 200.062 101.858 202.091 112.167 202.091C122.476 202.091 132.685 200.062 142.209 196.121C151.734 192.179 160.388 186.401 167.677 179.118C174.968 171.835 180.75 163.189 184.695 153.673C187.733 146.345 189.636 138.613 190.35 130.741Z" fill="#32B453"/>
<path d="M244.99 109.132H214.785C214.772 110.675 213.868 112.07 212.48 112.763L193.018 122.485C191.631 123.178 190.745 124.573 190.637 126.115H220.841C220.936 124.572 221.825 123.178 223.212 122.485L242.674 112.763C244.061 112.07 244.963 110.675 244.99 109.132Z" fill="#59CF77"/>
<path d="M3.50146 126.115H33.706C33.7192 124.573 34.6233 123.178 36.0108 122.485L55.4723 112.763C56.8599 112.07 57.7453 110.675 57.8545 109.132H27.6498C27.5541 110.675 26.666 112.07 25.2785 112.763L5.81701 122.485C4.42951 123.178 3.52804 124.572 3.50146 126.115Z" fill="#59CF77"/>
<path d="M75.9826 109.132C75.859 110.675 74.9763 112.07 73.589 112.763L54.1273 122.485C52.7396 123.178 51.8328 124.574 51.834 126.115H82.0783C82.0136 124.576 82.933 123.178 84.3209 122.485L103.782 112.763C105.171 112.069 106.042 110.671 106.226 109.132H75.9826Z" fill="#59CF77"/>
<path d="M166.413 109.132C166.477 110.671 165.559 112.069 164.17 112.763L144.709 122.485C143.32 123.178 142.449 124.576 142.265 126.115H172.509C172.632 124.574 173.515 123.178 174.903 122.485L194.364 112.763C195.751 112.07 196.658 110.675 196.657 109.132H166.413Z" fill="#59CF77"/>
</svg>
