<svg width="54" height="54" viewBox="0 0 54 54" fill="none" xmlns="http://www.w3.org/2000/svg">
<path d="M41.3438 16.0309C41.3438 16.6984 41.1458 17.3509 40.775 17.9059C40.4041 18.461 39.877 18.8935 39.2603 19.149C38.6436 19.4044 37.965 19.4713 37.3103 19.341C36.6557 19.2108 36.0543 18.8894 35.5823 18.4174C35.1103 17.9454 34.7888 17.344 34.6586 16.6893C34.5284 16.0346 34.5952 15.356 34.8507 14.7393C35.1061 14.1226 35.5387 13.5955 36.0937 13.2247C36.6487 12.8538 37.3013 12.6559 37.9688 12.6559C38.8639 12.6559 39.7223 13.0115 40.3553 13.6444C40.9882 14.2773 41.3438 15.1358 41.3438 16.0309ZM51.4688 20.8276C51.3032 25.4167 49.3687 29.7639 46.0703 32.9589C42.7719 36.1539 38.3653 37.949 33.7732 37.9684H33.75C32.0616 37.971 30.3815 37.7309 28.7613 37.2554L27.1034 38.9155C26.8681 39.1505 26.5889 39.3368 26.2816 39.4639C25.9743 39.5909 25.645 39.6562 25.3125 39.6559H22.7813V42.1871C22.7813 42.8585 22.5146 43.5023 22.0399 43.977C21.5652 44.4517 20.9213 44.7184 20.25 44.7184H17.7188V47.2496C17.7188 47.921 17.4521 48.5648 16.9774 49.0395C16.5027 49.5142 15.8588 49.7809 15.1875 49.7809H8.43752C7.31863 49.7809 6.24558 49.3364 5.45441 48.5452C4.66324 47.7541 4.21877 46.681 4.21877 45.5621V39.5103C4.21726 38.9561 4.32575 38.4071 4.53793 37.8951C4.75011 37.3832 5.06177 36.9184 5.45486 36.5277L16.7442 25.2383C16.0292 22.7795 15.8556 20.195 16.2354 17.6626C16.6151 15.1303 17.5393 12.7104 18.9441 10.5695C20.349 8.42861 22.2012 6.61767 24.3731 5.26138C26.5451 3.90509 28.9852 3.03567 31.5255 2.71301C34.0657 2.39035 36.6457 2.62211 39.0878 3.39233C41.5298 4.16254 43.776 5.45292 45.6714 7.17459C47.5669 8.89625 49.0667 11.0083 50.0675 13.3653C51.0683 15.7222 51.5464 18.2681 51.4688 20.8276ZM42.7001 11.2996C41.479 10.0675 40.0157 9.10201 38.4026 8.4641C36.7895 7.82619 35.0616 7.52971 33.3281 7.59339C26.5781 7.80432 21.0938 13.4764 21.0938 20.2264C21.0885 21.8288 21.3892 23.4175 21.9797 24.9071C22.1787 25.3722 22.2339 25.8862 22.138 26.3829C22.0421 26.8795 21.7996 27.3361 21.4418 27.6936L9.28127 39.8668V44.7184H12.6563V42.1871C12.6563 41.5158 12.9229 40.872 13.3977 40.3973C13.8724 39.9226 14.5162 39.6559 15.1875 39.6559H17.7188V37.1246C17.7188 36.4533 17.9855 35.8095 18.4602 35.3348C18.9349 34.8601 19.5787 34.5934 20.25 34.5934H24.2578L26.2934 32.5578C26.6511 32.1996 27.108 31.9569 27.6051 31.861C28.1022 31.7651 28.6167 31.8205 29.082 32.02C30.5675 32.6094 32.1518 32.9101 33.75 32.9059H33.7669C40.5169 32.9059 46.1848 27.4067 46.3999 20.6715C46.4635 18.9386 46.1676 17.2113 45.5309 15.5983C44.8941 13.9854 43.9303 12.5217 42.7001 11.2996Z" fill="#32B453"/>
</svg>
