<svg xmlns="http://www.w3.org/2000/svg" version="1.1" viewBox="1175 214 1650 1822">
<path d="M0 0 C2.18991462 1.03974597 3.54549992 2.15527644 5.25927901 3.87051448 C5.90040517 4.50489876 6.54153133 5.13928304 7.20208555 5.79289109 C7.89909384 6.49778041 8.59610212 7.20266974 9.31423187 7.92891935 C10.06342004 8.67464598 10.81260821 9.42037262 11.58449906 10.18869704 C14.1161474 12.71234678 16.63687323 15.24663765 19.15786361 17.78093103 C20.97971211 19.60147242 22.80221924 21.42135489 24.62533116 23.24063107 C28.59988667 27.20895718 32.56881711 31.18284103 36.5341587 35.16037324 C42.43053061 41.07482199 48.33545305 46.98067763 54.24218704 52.88477561 C64.17714665 62.81578979 74.10509755 72.75378279 84.02910232 82.69574311 C93.85814431 92.5425233 103.69027065 102.38620668 113.5265541 112.22575334 C114.13765808 112.83706353 114.74876205 113.44837372 115.37838432 114.07820846 C118.48176424 117.18260335 121.58519957 120.28694284 124.68865624 123.391261 C146.6824624 145.39137196 168.66930183 167.39843337 190.65206527 189.40957788 C212.01085159 210.79590786 233.37277974 232.17909157 254.73897934 253.55801538 C255.39733189 254.21676251 256.05568444 254.87550964 256.73398707 255.5542188 C263.34530963 262.16949685 269.95669622 268.78471089 276.56812973 275.39987804 C290.0369294 288.87628678 303.50530158 302.35312272 316.97341537 315.83021691 C317.59268683 316.44990024 318.21195828 317.06958356 318.84999554 317.70804517 C360.21875142 359.10441293 401.57750912 400.51076968 442.93478012 441.91861108 C441.31201049 445.99976771 438.39345302 448.7364948 435.33233869 451.7694495 C434.7499357 452.35440866 434.16753271 452.93936782 433.56748115 453.54205301 C431.59911018 455.51658804 429.62364272 457.48386872 427.64818 459.45130685 C426.22139006 460.87957517 424.7950392 462.30828223 423.36908996 463.73738989 C419.42256265 467.69008225 415.46977859 471.63646675 411.51600977 475.58191381 C407.22593697 479.86514148 402.94164636 484.15414596 398.65663874 488.44243982 C391.13701322 495.96622142 383.61369569 503.48629343 376.08790016 511.00390199 C368.0107109 519.07234305 359.93570057 527.14295547 351.86335945 535.21624711 C351.35400146 535.72566248 350.84464348 536.23507785 350.3198504 536.75993005 C347.72276315 539.35733004 345.12571148 541.95476561 342.52867238 544.55221375 C323.71810255 563.36560056 304.90269232 582.17414022 286.08472442 600.98012689 C267.44519737 619.60781463 248.80773654 638.23756571 230.17304992 656.87009576 C229.30541253 657.73762992 229.30541253 657.73762992 228.4202471 658.62269002 C223.13733552 663.90497522 217.85444944 669.18728591 212.57159396 674.46962721 C199.43818913 687.60175315 186.30446442 700.73355914 173.17052269 713.8651481 C172.57238948 714.46317466 171.97425628 715.06120123 171.35799783 715.67734981 C142.25235951 744.77774333 113.14303662 773.87445038 84.03341293 802.97085717 C73.92996571 813.06972113 63.82653476 823.16860138 53.72317123 833.26754907 C53.09657148 833.89387492 52.46997174 834.52020076 51.82438412 835.16550618 C22.70293378 864.27427162 -6.41590097 893.38565298 -35.53406002 922.49771072 C-37.42410983 924.38736441 -39.31416078 926.27701697 -41.20421196 928.16666931 C-53.72953179 940.68934961 -66.25480652 953.21207504 -78.78005105 965.73483068 C-103.70281772 990.65264417 -128.62584946 1015.57019254 -153.54906327 1040.4875588 C-154.73600898 1041.67422604 -155.92295452 1042.86089346 -157.10989986 1044.04756107 C-210.55295513 1097.47810795 -263.9990938 1150.90557004 -317.44656754 1204.33169702 C-317.94709722 1204.83202683 -318.4476269 1205.33235664 -318.96332415 1205.84784796 C-343.99710127 1230.87162387 -369.03105427 1255.89522382 -394.06521988 1280.91861108 C-397.1730992 1279.43212575 -399.3110615 1277.92251463 -401.75503636 1275.47768357 C-402.47626315 1274.76105558 -403.19748994 1274.04442758 -403.94057209 1273.30608359 C-404.72568123 1272.51583088 -405.51079038 1271.72557817 -406.31969071 1270.91137841 C-407.15938123 1270.0741023 -407.99907176 1269.23682619 -408.86420745 1268.37417808 C-411.19403642 1266.04901416 -413.5192896 1263.71943888 -415.84272492 1261.38789633 C-418.34977773 1258.87426805 -420.86258678 1256.36640577 -423.37468338 1253.85782006 C-428.29628611 1248.94126181 -433.21252577 1244.01937408 -438.12698082 1239.09567232 C-443.85285685 1233.35941105 -449.58395763 1227.62838179 -455.31527134 1221.89755438 C-465.54601607 1211.66731049 -475.77191979 1201.43224122 -485.99515152 1191.19448999 C-495.9078765 1181.26769384 -505.82408003 1171.34438999 -515.74417496 1161.42495874 C-516.65964352 1160.50955011 -516.65964352 1160.50955011 -517.59360639 1159.57564838 C-518.20287675 1158.96641838 -518.8121471 1158.35718838 -519.4398802 1157.72949687 C-530.73804388 1146.43202413 -542.03290933 1135.131259 -553.32625435 1123.8289695 C-557.31575661 1119.83645675 -561.30622938 1115.84491558 -565.29701043 1111.85368112 C-570.16663602 1106.98337139 -575.03435276 1102.11116261 -579.89974002 1097.23661871 C-582.38035635 1094.75140325 -584.86173031 1092.26695792 -587.3452797 1089.78467324 C-590.04244122 1087.0880042 -592.73649888 1084.38827133 -595.42979813 1081.6877456 C-596.20821511 1080.91087722 -596.98663209 1080.13400885 -597.78863746 1079.333599 C-601.87821978 1075.22592925 -605.80563285 1071.03410662 -609.58044833 1066.63459793 C-611.70676233 1064.17716476 -613.95479985 1061.83916387 -616.19021988 1059.48111108 C-623.06155307 1052.07575515 -629.07350079 1044.03987341 -635.06521988 1035.91861108 C-635.57729996 1035.23137963 -636.08938004 1034.54414819 -636.6169777 1033.83609155 C-644.55421713 1023.13995957 -651.33668446 1011.9695925 -657.75027848 1000.30191186 C-658.88518928 998.24491237 -660.04126237 996.20271464 -661.20975113 994.16470483 C-682.07667414 956.80823777 -693.29300424 914.20084838 -698.06521988 871.91861108 C-698.16834488 871.03020532 -698.27146988 870.14179956 -698.37771988 869.22647241 C-701.06520278 842.35884209 -700.52248655 813.53508761 -696.06521988 786.91861108 C-695.86122574 785.68691186 -695.6572316 784.45521264 -695.44705582 783.1861892 C-692.47926341 765.75958863 -688.5614348 748.7333986 -683.06521988 731.91861108 C-682.60454117 730.47204126 -682.60454117 730.47204126 -682.13455582 728.9962478 C-668.75134812 687.43967208 -645.98502524 647.50107751 -616.33084488 615.39517358 C-615.09460983 614.04384078 -613.86551978 612.68522656 -612.67478009 611.29363883 C-607.64280419 605.41620143 -602.23859051 599.94758761 -596.76654911 594.48292592 C-595.72760776 593.44172432 -594.68888286 592.4003067 -593.65035335 591.35869431 C-590.80110826 588.50225426 -587.94878946 585.64890112 -585.09594166 582.79605986 C-581.99088886 579.6899334 -578.88870007 576.58094869 -575.78613061 573.4723421 C-569.63484952 567.310011 -563.48087874 561.15037244 -557.32606615 554.99156876 C-549.95349921 547.61398399 -542.58379028 540.2335467 -535.21408382 532.8531047 C-517.40850898 515.02193297 -499.59766412 497.19602911 -481.78571485 479.37122526 C-475.88906198 473.47031665 -469.99256418 467.56925313 -464.09616447 461.66809157 C-432.7504257 430.29710258 -401.40308667 398.92771359 -370.0509348 367.56313375 C-362.79159415 360.30087176 -355.5322766 353.03858667 -348.27298355 345.7762771 C-347.37110697 344.8740296 -346.46923038 343.9717821 -345.54002419 343.04219377 C-316.26311486 313.75311407 -286.99562148 284.45464837 -257.73346144 255.15083346 C-227.65719922 225.03183541 -197.5729126 194.92087759 -167.47789504 164.82061928 C-163.23261508 160.57459883 -158.98742023 156.32849329 -154.74227333 152.08233979 C-153.90676249 151.24663833 -153.07125164 150.41093687 -152.21042229 149.54991112 C-138.73820547 136.0741741 -125.27441099 122.59005219 -111.81362665 109.10289647 C-98.30160253 95.56479856 -84.78047738 82.03584518 -71.24990932 68.51628044 C-63.2020749 60.47444575 -55.16134118 52.42565734 -47.13040562 44.36694589 C-41.7748774 38.99425988 -36.41043359 33.63059053 -31.03844997 28.27435794 C-27.97180166 25.21618017 -24.90937059 22.15406714 -21.85767023 19.08096673 C-19.08683164 16.29085275 -16.30495087 13.51229146 -13.51342725 10.74287724 C-12.50668567 9.74003111 -11.50420501 8.73288665 -10.50634236 7.72120534 C-9.16011759 6.35753878 -7.79714412 5.01046589 -6.4332369 3.66448495 C-5.68048078 2.91117266 -4.92772466 2.15786038 -4.15215775 1.38172045 C-2.06521988 -0.08138892 -2.06521988 -0.08138892 0 0 Z " fill="#004EFF" transform="translate(2159.0652198828757,755.0813889205456)"/>
<path d="M0 0 C5.47292105 4.56388291 10.54753482 9.4074224 15.57631588 14.45326805 C16.41844939 15.29424772 17.2605829 16.13522738 18.12823561 17.00169128 C20.45924806 19.33051739 22.78800643 21.66155615 25.11583168 23.99356548 C27.65107237 26.53225195 30.18922716 29.06802217 32.72701031 31.60416663 C37.1722805 36.04736603 41.61569404 40.49241537 46.05789185 44.93868637 C52.66326673 51.55010109 59.27151166 58.15864154 65.88034569 64.76659823 C76.99785613 75.88279527 88.11303888 87.00131703 99.22689629 98.12116623 C110.23079844 109.13098569 121.23573428 120.13977023 132.24205208 131.14717484 C132.92642621 131.83161771 133.61080034 132.51606058 134.31591308 133.22124414 C137.79151787 136.69718726 141.26714114 140.17311191 144.74277151 143.64902945 C169.35973053 168.2680888 193.97437033 192.88946574 218.58764648 217.51220703 C242.49890703 241.43265213 266.41121785 265.35204651 290.32495117 289.27001953 C291.06209411 290.00729399 291.79923705 290.74456846 292.55871765 291.50418457 C299.96142042 298.90820586 307.36414455 306.31220581 314.76688432 313.7161901 C329.84707842 328.7989204 344.92712997 343.88179321 360.00709534 358.9647522 C360.70044584 359.65823999 361.39379633 360.35172777 362.10815745 361.06623034 C408.40782626 407.37509961 454.70417226 453.68729078 501 500 C499.48138936 503.18243371 497.90616086 505.34356387 495.40289879 507.84599018 C494.65143684 508.60205093 493.89997489 509.35811167 493.12574136 510.13708335 C491.88199808 511.37311129 491.88199808 511.37311129 490.61312866 512.6341095 C489.73501703 513.51463555 488.8569054 514.39516159 487.95218432 515.30237025 C485.51300657 517.74621405 483.06941193 520.18548427 480.62385535 522.62293494 C477.98752728 525.25268888 475.35696348 527.8881978 472.72567749 530.522995 C467.56848511 535.68523237 462.40596165 540.84210664 457.24162571 545.99719647 C451.22549969 552.00293863 445.21460411 558.0139043 439.20391138 564.02508339 C428.47452466 574.75497096 417.74031186 585.48001756 407.00341797 596.20239258 C396.59159544 606.60014312 386.18326572 617.00137337 375.77880859 627.40649414 C375.13866622 628.04667647 374.49852385 628.6868588 373.83898322 629.34644059 C373.19993637 629.98552779 372.56088953 630.624615 371.90247762 631.28306848 C360.05382734 643.13240961 348.20188495 654.97845307 336.34841757 666.82297531 C332.16053788 671.0078439 327.97363032 675.1936836 323.78702927 679.37983131 C318.67883402 684.4873426 313.56874063 689.59294639 308.45630972 694.69621805 C305.84957753 697.29834947 303.24361712 699.90124075 300.63981628 702.50630569 C297.81218326 705.33524484 294.98067171 708.16027039 292.14877319 710.98493958 C291.33299533 711.80226604 290.51721747 712.6195925 289.67671907 713.46168643 C285.46321447 717.65748008 281.17245151 721.69783421 276.65991557 725.57129973 C274.57414502 727.36653619 272.57364735 729.24691533 270.5625 731.125 C206.99038935 788.29137126 120.1520842 813.99551328 35.74609375 809.72265625 C-60.26930425 803.59231327 -132.77138352 755.45437222 -198.48304856 689.63301706 C-201.7713708 686.34032876 -205.06263181 683.05058005 -208.35351562 679.76045227 C-214.03852998 674.07595929 -219.72172768 668.38965542 -225.4036541 662.70207596 C-233.61851361 654.47904872 -241.83617166 646.2588228 -250.05448974 638.03925233 C-263.39188359 624.6996762 -276.72704821 611.35787394 -290.06079102 598.01464844 C-303.00427261 585.06197133 -315.94881637 572.11035723 -328.89477539 559.16015625 C-329.69433635 558.36033257 -330.49389731 557.56050889 -331.31768738 556.73644812 C-335.32932578 552.72350458 -339.3409849 548.71058177 -343.35265434 544.69766927 C-376.57165109 511.46832558 -409.78702175 478.23535916 -443 445 C-441.66765168 442.04379009 -440.2131175 439.96342203 -437.9238981 437.67550111 C-436.96895074 436.71381187 -436.96895074 436.71381187 -435.99471152 435.73269457 C-435.29244921 435.03568628 -434.59018689 434.338678 -433.86664391 433.62054825 C-432.74632318 432.49676599 -432.74632318 432.49676599 -431.60336971 431.35028106 C-429.07945995 428.82104397 -426.54843211 426.29905039 -424.01742554 423.7769165 C-422.19623501 421.95485447 -420.37548377 420.13235327 -418.55513632 418.30944896 C-414.58638444 414.33654587 -410.61392311 410.36738217 -406.63903236 406.40062141 C-400.72850684 400.50215141 -394.82370982 394.59797183 -388.92008801 388.69259308 C-378.9897558 378.75963111 -369.05476925 368.83133677 -359.11713791 358.9056778 C-349.27512262 349.07548935 -339.43517173 339.24324205 -329.5979805 329.40822601 C-328.68111832 328.49157006 -328.68111832 328.49157006 -327.74573368 327.5563958 C-324.64166243 324.45300119 -321.53762811 321.34956965 -318.43360801 318.24612388 C-296.43760084 296.25431952 -274.43695856 274.2671575 -252.43359375 252.28271484 C-231.05527159 230.92275614 -209.67904722 209.56070164 -188.30566406 188.19580078 C-187.64704846 187.53744823 -186.98843285 186.87909568 -186.3098592 186.20079305 C-179.6958802 179.58945105 -173.08194388 172.97806636 -166.46803882 166.36665038 C-152.99429019 152.89797443 -139.52025671 139.42958345 -126.04605103 125.96136475 C-125.42650499 125.34209329 -124.80695895 124.72282184 -124.1686388 124.08478458 C-82.78386329 82.71841593 -41.39242697 41.35871219 0 0 Z " fill="#004EFF" transform="translate(1618,214)"/>
<path d="M0 0 C3.96 0 7.92 0 12 0 C18.78446606 15.95300617 25.48552761 31.93471065 32 48 C32.42821045 46.97229492 32.8564209 45.94458984 33.29760742 44.88574219 C39.53173828 29.92382812 45.76586914 14.96191406 52 0 C56.29 0 60.58 0 65 0 C65 21.45 65 42.9 65 65 C61.7 65 58.4 65 55 65 C54.505 44.21 54.505 44.21 54 23 C52.78441406 25.94808594 51.56882812 28.89617187 50.31640625 31.93359375 C49.14211909 34.77669657 47.96697599 37.61944416 46.79174805 40.4621582 C45.97314214 42.44355845 45.15543168 44.42532888 44.33862305 46.4074707 C43.16688453 49.25048211 41.99197054 52.09216252 40.81640625 54.93359375 C40.44971329 55.82525742 40.08302032 56.71692108 39.70521545 57.63560486 C39.3649382 58.45638016 39.02466095 59.27715546 38.67407227 60.12280273 C38.3742897 60.84894272 38.07450714 61.5750827 37.76564026 62.32322693 C37 64 37 64 36 65 C33.32941149 65.14115161 30.67567762 65.04247107 28 65 C23.49257283 55.52510094 19.47822557 45.94325045 15.625 36.1875 C13.76875 31.505625 11.9125 26.82375 10 22 C9.67 36.19 9.34 50.38 9 65 C6.03 65 3.06 65 0 65 C0 43.55 0 22.1 0 0 Z " fill="#004EFF" transform="translate(2760,1191)"/>
<path d="M0 0 C16.5 0 33 0 50 0 C50 3.3 50 6.6 50 10 C43.4 10 36.8 10 30 10 C30 28.15 30 46.3 30 65 C26.37 65 22.74 65 19 65 C19 46.85 19 28.7 19 10 C12.73 10 6.46 10 0 10 C0 6.7 0 3.4 0 0 Z " fill="#004EFF" transform="translate(2700,1191)"/>
</svg>