<svg width="64" height="64" viewBox="0 0 64 64" fill="none" xmlns="http://www.w3.org/2000/svg">
<path d="M52.1228 16.1175L16.1228 52.1175C15.8437 52.3966 15.5124 52.6179 15.1478 52.7689C14.7832 52.92 14.3924 52.9977 13.9978 52.9977C13.6031 52.9977 13.2123 52.92 12.8477 52.7689C12.4831 52.6179 12.1518 52.3966 11.8728 52.1175C11.5937 51.8384 11.3723 51.5071 11.2213 51.1425C11.0703 50.7779 10.9926 50.3871 10.9926 49.9925C10.9926 49.5979 11.0703 49.2071 11.2213 48.8425C11.3723 48.4778 11.5937 48.1466 11.8728 47.8675L47.8728 11.8675C48.4363 11.3039 49.2007 10.9873 49.9978 10.9873C50.7948 10.9873 51.5592 11.3039 52.1228 11.8675C52.6863 12.4311 53.003 13.1955 53.003 13.9925C53.003 14.7895 52.6863 15.5539 52.1228 16.1175ZM11.9303 26.0675C10.2952 24.4308 9.27818 22.2777 9.05256 19.9752C8.82695 17.6727 9.40667 15.3632 10.6929 13.4402C11.9792 11.5172 13.8925 10.0997 16.1067 9.42918C18.321 8.75868 20.6992 8.87667 22.8362 9.76306C24.9732 10.6494 26.7368 12.2494 27.8264 14.2903C28.916 16.3311 29.2642 18.6867 28.8118 20.9556C28.3594 23.2244 27.1343 25.2662 25.3452 26.7331C23.5561 28.1999 21.3138 29.0011 19.0003 29C17.6864 29.0032 16.385 28.7457 15.1714 28.2423C13.9578 27.7389 12.8561 26.9997 11.9303 26.0675ZM15.0003 19C14.9998 19.9254 15.3203 20.8224 15.9071 21.538C16.4939 22.2537 17.3106 22.7437 18.2182 22.9247C19.1258 23.1056 20.068 22.9662 20.8844 22.5303C21.7007 22.0944 22.3407 21.3889 22.6952 20.5341C23.0497 19.6792 23.0968 18.7279 22.8285 17.8422C22.5602 16.9565 21.993 16.1912 21.2237 15.6768C20.4545 15.1624 19.5306 14.9306 18.6096 15.021C17.6885 15.1114 16.8274 15.5183 16.1728 16.1725C15.7998 16.5427 15.5041 16.9832 15.3029 17.4686C15.1016 17.954 14.9987 18.4745 15.0003 19ZM55.0003 45C55.0002 47.3135 54.198 49.5554 52.7303 51.3437C51.2626 53.132 49.2203 54.3561 46.9513 54.8075C44.6823 55.2588 42.3269 54.9095 40.2866 53.819C38.2463 52.7285 36.6471 50.9643 35.7617 48.827C34.8762 46.6897 34.7592 44.3115 35.4306 42.0976C36.102 39.8837 37.5202 37.971 39.4437 36.6855C41.3671 35.4 43.6768 34.8212 45.9792 35.0477C48.2815 35.2741 50.4341 36.2919 52.0703 37.9275C53.0024 38.8538 53.7414 39.9559 54.2444 41.17C54.7474 42.384 55.0043 43.6859 55.0003 45ZM49.0003 45C49.0021 44.4741 48.8994 43.9531 48.6982 43.4673C48.4969 42.9814 48.201 42.5405 47.8278 42.17C47.1732 41.5159 46.3122 41.109 45.3913 41.0185C44.4704 40.9281 43.5466 41.1597 42.7773 41.6739C42.008 42.1882 41.4408 42.9532 41.1723 43.8388C40.9038 44.7243 40.9507 45.6755 41.3049 46.5304C41.6591 47.3853 42.2987 48.0909 43.1148 48.5271C43.9308 48.9633 44.8729 49.103 45.7805 48.9225C46.688 48.742 47.5049 48.2525 48.092 47.5372C48.6791 46.822 49.0001 45.9253 49.0003 45Z" fill="white"/>
</svg>
