<svg width="39" height="39" viewBox="0 0 39 39" fill="none" xmlns="http://www.w3.org/2000/svg">
<path d="M36.75 25.2742L27.9206 21.3161L27.8869 21.3011C27.313 21.0536 26.6862 20.954 26.0638 21.0113C25.4415 21.0687 24.8435 21.2811 24.3244 21.6292C24.2516 21.6779 24.1815 21.7305 24.1144 21.7867L19.9313 25.3492C17.4938 24.0273 14.9756 21.5298 13.6519 19.1223L17.2256 14.8736C17.2831 14.805 17.3363 14.733 17.385 14.6579C17.724 14.1407 17.9298 13.5477 17.9841 12.9317C18.0384 12.3157 17.9395 11.6958 17.6963 11.1273C17.6905 11.1164 17.6855 11.1051 17.6813 11.0936L13.725 2.24918C13.4003 1.50953 12.846 0.894091 12.1443 0.493931C11.4426 0.0937714 10.6307 -0.069843 9.82876 0.0273017C7.10696 0.384852 4.60837 1.72094 2.79965 3.78603C0.990925 5.85112 -0.00424051 8.50399 1.35826e-05 11.2492C1.35826e-05 26.5511 12.4481 38.9992 27.75 38.9992C30.4952 39.0034 33.1481 38.0083 35.2132 36.1995C37.2783 34.3908 38.6143 31.8922 38.9719 29.1704C39.069 28.3685 38.9054 27.5566 38.5053 26.8549C38.1051 26.1532 37.4897 25.5989 36.75 25.2742ZM27.75 34.4992C21.586 34.4917 15.6766 32.0398 11.318 27.6812C6.95939 23.3226 4.50746 17.4132 4.50001 11.2492C4.49572 9.69573 5.02311 8.18758 5.99454 6.97533C6.96597 5.76309 8.32296 4.91974 9.84001 4.58543L13.3688 12.4604L9.77626 16.7392C9.7182 16.8084 9.66435 16.881 9.61501 16.9567C9.26092 17.4977 9.05274 18.1211 9.01068 18.7664C8.96863 19.4116 9.09414 20.0568 9.37501 20.6392C11.1413 24.2542 14.7806 27.8692 18.4331 29.6392C19.0194 29.9171 19.6679 30.0382 20.315 29.9906C20.9621 29.9429 21.5857 29.7281 22.125 29.3673C22.1975 29.3184 22.267 29.2652 22.3331 29.2079L26.5388 25.6323L34.4138 29.1592C34.0794 30.6762 33.2361 32.0332 32.0239 33.0047C30.8116 33.9761 29.3035 34.5035 27.75 34.4992Z" fill="#32B453"/>
</svg>
