<svg width="29" height="29" viewBox="0 0 29 29" fill="none" xmlns="http://www.w3.org/2000/svg">
<g filter="url(#filter0_d_1235_501)">
<path d="M18.6592 12.8152C18.6592 12.9975 18.6151 13.1771 18.5305 13.3385C18.4459 13.5 18.3235 13.6385 18.1736 13.7422L13.2897 17.1234C13.1205 17.2405 12.9226 17.3091 12.7173 17.3217C12.512 17.3343 12.3071 17.2905 12.1249 17.195C11.9427 17.0995 11.7902 16.956 11.6837 16.7799C11.5773 16.6039 11.521 16.4021 11.5211 16.1964V9.43403C11.521 9.22833 11.5773 9.02654 11.6837 8.85052C11.7902 8.6745 11.9427 8.53097 12.1249 8.43547C12.3071 8.33997 12.512 8.29616 12.7173 8.30877C12.9226 8.32138 13.1205 8.38994 13.2897 8.50702L18.1736 11.8882C18.3235 11.992 18.4459 12.1305 18.5305 12.2919C18.6151 12.4534 18.6592 12.633 18.6592 12.8152ZM24.2945 12.8152C24.2945 14.8214 23.6996 16.7826 22.585 18.4507C21.4704 20.1188 19.8862 21.4189 18.0327 22.1867C16.1792 22.9544 14.1397 23.1553 12.172 22.7639C10.2043 22.3725 8.39693 21.4064 6.97832 19.9878C5.55971 18.5692 4.59363 16.7618 4.20224 14.7941C3.81084 12.8265 4.01172 10.7869 4.77946 8.93344C5.54721 7.07994 6.84734 5.49573 8.51545 4.38114C10.1836 3.26654 12.1447 2.67163 14.1509 2.67163C16.8403 2.67461 19.4186 3.74427 21.3202 5.64592C23.2219 7.54756 24.2915 10.1259 24.2945 12.8152ZM22.0404 12.8152C22.0404 11.2548 21.5777 9.72949 20.7108 8.43208C19.8439 7.13466 18.6117 6.12345 17.1701 5.52631C15.7285 4.92918 14.1422 4.77294 12.6118 5.07736C11.0814 5.38177 9.67559 6.13317 8.57223 7.23653C7.46887 8.3399 6.71747 9.74566 6.41306 11.2761C6.10864 12.8065 6.26488 14.3928 6.86201 15.8344C7.45915 17.276 8.47036 18.5082 9.76777 19.3751C11.0652 20.242 12.5905 20.7047 14.1509 20.7047C16.2427 20.7025 18.2481 19.8705 19.7271 18.3914C21.2062 16.9124 22.0382 14.907 22.0404 12.8152Z" fill="white"/>
</g>
<defs>
<filter id="filter0_d_1235_501" x="-1.87844" y="-1.87835" width="32.0586" height="32.0589" filterUnits="userSpaceOnUse" color-interpolation-filters="sRGB">
<feFlood flood-opacity="0" result="BackgroundImageFix"/>
<feColorMatrix in="SourceAlpha" type="matrix" values="0 0 0 0 0 0 0 0 0 0 0 0 0 0 0 0 0 0 127 0" result="hardAlpha"/>
<feOffset dy="1.33578"/>
<feGaussianBlur stdDeviation="2.00367"/>
<feColorMatrix type="matrix" values="0 0 0 0 0.0431373 0 0 0 0 0.0745098 0 0 0 0 0.141176 0 0 0 0.24 0"/>
<feBlend mode="normal" in2="BackgroundImageFix" result="effect1_dropShadow_1235_501"/>
<feBlend mode="normal" in="SourceGraphic" in2="effect1_dropShadow_1235_501" result="shape"/>
</filter>
</defs>
</svg>
