<svg width="72" height="72" viewBox="0 0 72 72" fill="none" xmlns="http://www.w3.org/2000/svg">
<g filter="url(#filter0_i_66_2314)">
<path d="M49.5 36C49.5002 36.5458 49.3679 37.0835 49.1147 37.567C48.8614 38.0504 48.4947 38.4653 48.046 38.7759L33.421 48.9009C32.9145 49.2515 32.3217 49.4568 31.7069 49.4946C31.0921 49.5324 30.4787 49.4011 29.9332 49.1152C29.3876 48.8292 28.9307 48.3994 28.612 47.8723C28.2932 47.3452 28.1248 46.741 28.125 46.125V25.875C28.1248 25.259 28.2932 24.6548 28.612 24.1277C28.9307 23.6006 29.3876 23.1708 29.9332 22.8848C30.4787 22.5989 31.0921 22.4676 31.7069 22.5054C32.3217 22.5432 32.9145 22.7485 33.421 23.0991L48.046 33.2241C48.4947 33.5347 48.8614 33.9496 49.1147 34.433C49.3679 34.9165 49.5002 35.4542 49.5 36ZM66.375 36C66.375 42.0076 64.5936 47.8803 61.2559 52.8754C57.9183 57.8706 53.1743 61.7638 47.624 64.0628C42.0737 66.3619 35.9663 66.9634 30.0741 65.7914C24.182 64.6193 18.7697 61.7264 14.5216 57.4784C10.2736 53.2304 7.38069 47.818 6.20866 41.9259C5.03663 36.0337 5.63816 29.9263 7.93717 24.376C10.2362 18.8257 14.1294 14.0818 19.1246 10.7441C24.1197 7.40646 29.9924 5.625 36 5.625C44.0532 5.63393 51.774 8.83702 57.4685 14.5315C63.163 20.226 66.3661 27.9468 66.375 36ZM59.625 36C59.625 31.3274 58.2394 26.7598 55.6435 22.8747C53.0475 18.9895 49.3578 15.9615 45.0409 14.1733C40.724 12.3852 35.9738 11.9174 31.391 12.8289C26.8082 13.7405 22.5986 15.9906 19.2946 19.2946C15.9906 22.5986 13.7405 26.8082 12.829 31.391C11.9174 35.9738 12.3852 40.724 14.1734 45.0409C15.9615 49.3578 18.9896 53.0475 22.8747 55.6435C26.7598 58.2394 31.3274 59.625 36 59.625C42.2637 59.6183 48.2689 57.1271 52.698 52.698C57.1271 48.2689 59.6183 42.2637 59.625 36Z" fill="#07112E" fill-opacity="0.06"/>
</g>
<defs>
<filter id="filter0_i_66_2314" x="0" y="0" width="72" height="76" filterUnits="userSpaceOnUse" color-interpolation-filters="sRGB">
<feFlood flood-opacity="0" result="BackgroundImageFix"/>
<feBlend mode="normal" in="SourceGraphic" in2="BackgroundImageFix" result="shape"/>
<feColorMatrix in="SourceAlpha" type="matrix" values="0 0 0 0 0 0 0 0 0 0 0 0 0 0 0 0 0 0 127 0" result="hardAlpha"/>
<feOffset dy="4"/>
<feGaussianBlur stdDeviation="5"/>
<feComposite in2="hardAlpha" operator="arithmetic" k2="-1" k3="1"/>
<feColorMatrix type="matrix" values="0 0 0 0 0.0431373 0 0 0 0 0.0745098 0 0 0 0 0.141176 0 0 0 0.64 0"/>
<feBlend mode="normal" in2="shape" result="effect1_innerShadow_66_2314"/>
</filter>
</defs>
</svg>
