<svg width="17" height="16" viewBox="0 0 17 16" fill="none" xmlns="http://www.w3.org/2000/svg">
<path d="M2.22925 1.5C2.22925 1.05127 1.86548 0.6875 1.41675 0.6875C0.968017 0.6875 0.604248 1.05127 0.604248 1.5V14.5C0.604248 14.9487 0.968017 15.3125 1.41675 15.3125C1.86548 15.3125 2.22925 14.9487 2.22925 14.5L2.22925 1.5Z" fill="#363636"/>
<path d="M12.7783 0.702699C12.0451 0.624287 11.3159 0.857359 10.5339 1.22432C9.75559 1.58953 8.80286 2.14923 7.59956 2.85613L7.52515 2.89984C6.32162 3.60685 5.36892 4.16651 4.6691 4.66959C3.96464 5.17602 3.40647 5.69932 3.11017 6.37645C2.65783 7.41022 2.65783 8.58978 3.11017 9.62354C3.40647 10.3007 3.96464 10.824 4.6691 11.3304C5.36892 11.8335 6.32161 12.3931 7.52513 13.1001L7.59958 13.1439C8.80287 13.8508 9.7556 14.4105 10.5339 14.7757C11.3159 15.1426 12.0451 15.3757 12.7783 15.2973C13.8959 15.1778 14.9069 14.5818 15.5624 13.6637C15.9906 13.0641 16.1559 12.313 16.2344 11.4424C16.3126 10.5755 16.3126 9.45739 16.3126 8.04218V7.95779C16.3126 6.5426 16.3126 5.42446 16.2344 4.55759C16.1559 3.68698 15.9906 2.93591 15.5624 2.33628C14.9069 1.41824 13.8959 0.822223 12.7783 0.702699Z" fill="#363636"/>
</svg>
