<svg width="24" height="24" viewBox="0 0 24 24" fill="none" xmlns="http://www.w3.org/2000/svg">
<path d="M9.60006 15.6501L12.0001 13.8001L14.4001 15.6501L13.5001 12.6001L15.7501 11.0001H12.9501L12.0001 7.9001L11.0501 11.0001H8.25006L10.5001 12.6001L9.60006 15.6501ZM12.0001 16.3001L8.30006 19.1251C8.11673 19.2751 7.91673 19.3461 7.70006 19.3381C7.4834 19.3301 7.29173 19.2674 7.12506 19.1501C6.9584 19.0328 6.8294 18.8744 6.73806 18.6751C6.64673 18.4758 6.6424 18.2591 6.72506 18.0251L8.15006 13.4001L4.52506 10.8251C4.32506 10.6918 4.20006 10.5168 4.15006 10.3001C4.10006 10.0834 4.1084 9.88344 4.17506 9.7001C4.24173 9.51677 4.3584 9.3541 4.52506 9.2121C4.69173 9.0701 4.89173 8.99944 5.12506 9.0001H9.60006L11.0501 4.2001C11.1334 3.96677 11.2627 3.78744 11.4381 3.6621C11.6134 3.53677 11.8007 3.47444 12.0001 3.4751C12.1994 3.47577 12.3871 3.53844 12.5631 3.6631C12.7391 3.78777 12.8681 3.96677 12.9501 4.2001L14.4001 9.0001H18.8751C19.1084 9.0001 19.3084 9.0711 19.4751 9.2131C19.6417 9.3551 19.7584 9.51744 19.8251 9.7001C19.8917 9.88277 19.9001 10.0828 19.8501 10.3001C19.8001 10.5174 19.6751 10.6924 19.4751 10.8251L15.8501 13.4001L17.2751 18.0251C17.3584 18.2584 17.3544 18.4751 17.2631 18.6751C17.1717 18.8751 17.0424 19.0334 16.8751 19.1501C16.7077 19.2668 16.5161 19.3294 16.3001 19.3381C16.0841 19.3468 15.8841 19.2758 15.7001 19.1251L12.0001 16.3001Z" fill="black"/>
</svg>
