<svg width="52" height="52" viewBox="0 0 52 52" fill="none" xmlns="http://www.w3.org/2000/svg">
<path d="M4.06198 25.9999C4.06628 21.907 5.69411 17.9829 8.58827 15.0887C11.4824 12.1945 15.4065 10.5667 19.4995 10.5624H39.6089L38.8939 9.84944C38.6671 9.62271 38.4873 9.35353 38.3646 9.05729C38.2419 8.76105 38.1787 8.44353 38.1787 8.12288C38.1787 7.80223 38.2419 7.48472 38.3646 7.18847C38.4873 6.89223 38.6671 6.62305 38.8939 6.39632C39.1206 6.16958 39.3898 5.98973 39.686 5.86702C39.9823 5.74431 40.2998 5.68115 40.6204 5.68115C40.9411 5.68115 41.2586 5.74431 41.5548 5.86702C41.8511 5.98973 42.1202 6.16958 42.347 6.39632L47.222 11.2713C47.4492 11.4978 47.6295 11.7669 47.7526 12.0631C47.8756 12.3594 47.9389 12.6771 47.9389 12.9979C47.9389 13.3187 47.8756 13.6363 47.7526 13.9326C47.6295 14.2289 47.4492 14.498 47.222 14.7244L42.347 19.5994C41.8891 20.0574 41.268 20.3146 40.6204 20.3146C39.9728 20.3146 39.3518 20.0574 38.8939 19.5994C38.4359 19.1415 38.1787 18.5205 38.1787 17.8729C38.1787 17.2253 38.4359 16.6042 38.8939 16.1463L39.6089 15.4374H19.4995C16.6991 15.4406 14.0144 16.5545 12.0342 18.5347C10.0541 20.5148 8.94021 23.1996 8.93698 25.9999C8.93698 26.6464 8.68017 27.2664 8.22305 27.7235C7.76593 28.1806 7.14595 28.4374 6.49948 28.4374C5.85302 28.4374 5.23303 28.1806 4.77591 27.7235C4.31879 27.2664 4.06198 26.6464 4.06198 25.9999ZM45.4995 23.5624C44.853 23.5624 44.233 23.8192 43.7759 24.2763C43.3188 24.7335 43.062 25.3534 43.062 25.9999C43.0588 28.8003 41.9449 31.485 39.9647 33.4652C37.9846 35.4453 35.2998 36.5592 32.4995 36.5624H12.3901L13.1051 35.8494C13.3318 35.6227 13.5117 35.3535 13.6344 35.0573C13.7571 34.761 13.8203 34.4435 13.8203 34.1229C13.8203 33.8022 13.7571 33.4847 13.6344 33.1885C13.5117 32.8922 13.3318 32.6231 13.1051 32.3963C12.8784 32.1696 12.6092 31.9897 12.313 31.867C12.0167 31.7443 11.6992 31.6811 11.3785 31.6811C11.0579 31.6811 10.7404 31.7443 10.4441 31.867C10.1479 31.9897 9.87872 32.1696 9.65198 32.3963L4.77698 37.2713C4.54974 37.4978 4.36944 37.7669 4.24641 38.0631C4.12339 38.3594 4.06006 38.6771 4.06006 38.9979C4.06006 39.3187 4.12339 39.6363 4.24641 39.9326C4.36944 40.2289 4.54974 40.498 4.77698 40.7244L9.65198 45.5994C9.87872 45.8262 10.1479 46.006 10.4441 46.1287C10.7404 46.2514 11.0579 46.3146 11.3785 46.3146C11.6992 46.3146 12.0167 46.2514 12.313 46.1287C12.6092 46.006 12.8784 45.8262 13.1051 45.5994C13.3318 45.3727 13.5117 45.1035 13.6344 44.8073C13.7571 44.511 13.8203 44.1935 13.8203 43.8729C13.8203 43.5522 13.7571 43.2347 13.6344 42.9385C13.5117 42.6422 13.3318 42.3731 13.1051 42.1463L12.3901 41.4374H32.4995C36.5924 41.4331 40.5165 39.8053 43.4107 36.9111C46.3049 34.017 47.9327 30.0929 47.937 25.9999C47.937 25.3534 47.6802 24.7335 47.2231 24.2763C46.7659 23.8192 46.146 23.5624 45.4995 23.5624Z" fill="#707480"/>
</svg>
