<svg width="11" height="15" viewBox="0 0 11 15" fill="none" xmlns="http://www.w3.org/2000/svg">
<path opacity="0.2" d="M8.5 5.50327C8.5 6.09661 8.32405 6.67663 7.99441 7.16998C7.66477 7.66332 7.19623 8.04784 6.64805 8.2749C6.09987 8.50197 5.49667 8.56138 4.91473 8.44562C4.33279 8.32987 3.79824 8.04414 3.37868 7.62459C2.95912 7.20503 2.6734 6.67048 2.55765 6.08854C2.44189 5.50659 2.5013 4.90339 2.72836 4.35522C2.95543 3.80704 3.33994 3.3385 3.83329 3.00886C4.32664 2.67921 4.90666 2.50327 5.5 2.50327C6.29565 2.50327 7.05871 2.81934 7.62132 3.38195C8.18393 3.94455 8.5 4.70762 8.5 5.50327Z" fill="black"/>
<path d="M11 5.50327C11.0006 4.57639 10.7669 3.66441 10.3206 2.85203C9.87437 2.03965 9.23006 1.35322 8.44752 0.856497C7.66499 0.359773 6.76961 0.0688693 5.84456 0.0108042C4.9195 -0.0472608 3.99478 0.129396 3.15627 0.524368C2.31776 0.919339 1.59268 1.51981 1.04835 2.27002C0.504025 3.02022 0.15812 3.89582 0.0427641 4.81549C-0.072592 5.73515 0.0463424 6.66906 0.38852 7.53046C0.730698 8.39186 1.28502 9.15281 2 9.74264V14.5033C1.99994 14.5885 2.02169 14.6724 2.06318 14.7469C2.10467 14.8214 2.16452 14.8841 2.23705 14.9289C2.30958 14.9737 2.39237 14.9993 2.47756 15.0031C2.56274 15.0069 2.64749 14.9889 2.72375 14.9508L5.5 13.5658L8.27688 14.9539C8.34652 14.9871 8.42283 15.004 8.5 15.0033C8.63261 15.0033 8.75979 14.9506 8.85355 14.8568C8.94732 14.7631 9 14.6359 9 14.5033V9.74264C9.62558 9.22741 10.1293 8.58008 10.4751 7.84711C10.8209 7.11414 11.0002 6.31371 11 5.50327ZM1 5.50327C1 4.61325 1.26392 3.74322 1.75839 3.0032C2.25285 2.26318 2.95566 1.6864 3.77793 1.34581C4.60019 1.00521 5.50499 0.916099 6.37791 1.08973C7.25082 1.26337 8.05264 1.69195 8.68198 2.32129C9.31132 2.95062 9.7399 3.75245 9.91354 4.62536C10.0872 5.49827 9.99805 6.40307 9.65746 7.22534C9.31686 8.04761 8.74009 8.75041 8.00007 9.24488C7.26005 9.73935 6.39002 10.0033 5.5 10.0033C4.30693 10.0019 3.16311 9.52741 2.31948 8.68379C1.47586 7.84016 1.00132 6.69633 1 5.50327ZM8 13.6945L5.72313 12.5564C5.65366 12.5216 5.57705 12.5035 5.49938 12.5035C5.4217 12.5035 5.34509 12.5216 5.27563 12.5564L3 13.6945V10.4014C3.77398 10.797 4.63079 11.0033 5.5 11.0033C6.36922 11.0033 7.22602 10.797 8 10.4014V13.6945ZM5.5 9.00327C6.19224 9.00327 6.86892 8.798 7.4445 8.41341C8.02007 8.02883 8.46867 7.4822 8.73358 6.84266C8.99849 6.20312 9.0678 5.49938 8.93275 4.82045C8.7977 4.14152 8.46436 3.51788 7.97487 3.02839C7.48539 2.53891 6.86175 2.20557 6.18282 2.07052C5.50388 1.93547 4.80015 2.00478 4.16061 2.26969C3.52107 2.53459 2.97444 2.9832 2.58986 3.55877C2.20527 4.13434 2 4.81103 2 5.50327C2.00099 6.43122 2.37006 7.32088 3.02622 7.97704C3.68239 8.63321 4.57205 9.00227 5.5 9.00327ZM5.5 3.00327C5.99445 3.00327 6.4778 3.14989 6.88893 3.42459C7.30005 3.6993 7.62048 4.08974 7.8097 4.54656C7.99892 5.00337 8.04843 5.50604 7.95196 5.99099C7.8555 6.47594 7.6174 6.9214 7.26777 7.27103C6.91814 7.62066 6.47268 7.85877 5.98773 7.95523C5.50277 8.05169 5.00011 8.00218 4.54329 7.81296C4.08648 7.62375 3.69603 7.30331 3.42133 6.89219C3.14662 6.48107 3 5.99772 3 5.50327C3 4.84022 3.26339 4.20434 3.73223 3.7355C4.20107 3.26666 4.83696 3.00327 5.5 3.00327Z" fill="black"/>
</svg>
