<svg width="56" height="56" viewBox="0 0 56 56" fill="none" xmlns="http://www.w3.org/2000/svg">
<path d="M50.8564 47.1425L40.468 36.7497C43.5827 32.6907 45.037 27.5989 44.5356 22.5072C44.0343 17.4155 41.6149 12.7051 37.7682 9.33155C33.9216 5.95803 28.9358 4.174 23.8222 4.34136C18.7086 4.50872 13.8501 6.61493 10.2323 10.2327C6.61444 13.8506 4.50823 18.7091 4.34087 23.8227C4.17351 28.9363 5.95754 33.9221 9.33106 37.7687C12.7046 41.6154 17.415 44.0347 22.5067 44.5361C27.5984 45.0374 32.6902 43.5832 36.7492 40.4684L47.1464 50.8678C47.3906 51.112 47.6805 51.3057 47.9995 51.4378C48.3185 51.57 48.6605 51.638 49.0058 51.638C49.3511 51.638 49.693 51.57 50.0121 51.4378C50.3311 51.3057 50.621 51.112 50.8652 50.8678C51.1093 50.6236 51.303 50.3338 51.4352 50.0147C51.5673 49.6957 51.6353 49.3538 51.6353 49.0084C51.6353 48.6631 51.5673 48.3212 51.4352 48.0022C51.303 47.6831 51.1093 47.3932 50.8652 47.1491L50.8564 47.1425ZM9.62421 24.4997C9.62421 21.5577 10.4966 18.6818 12.1311 16.2356C13.7656 13.7894 16.0887 11.8828 18.8068 10.757C21.5248 9.63114 24.5157 9.33656 27.4012 9.91052C30.2866 10.4845 32.9371 11.9012 35.0174 13.9815C37.0977 16.0618 38.5144 18.7123 39.0884 21.5977C39.6623 24.4832 39.3678 27.4741 38.2419 30.1921C37.1161 32.9102 35.2095 35.2333 32.7633 36.8678C30.3171 38.5023 27.4412 39.3747 24.4992 39.3747C20.5554 39.3706 16.7742 37.8022 13.9855 35.0134C11.1968 32.2247 9.62827 28.4436 9.62421 24.4997Z" fill="#707480"/>
</svg>
