<svg width="56" height="56" viewBox="0 0 56 56" fill="none" xmlns="http://www.w3.org/2000/svg">
<path d="M8.75 20.1253H15.3256C15.8686 21.6605 16.8741 22.9896 18.2037 23.9297C19.5333 24.8698 21.1216 25.3746 22.75 25.3746C24.3784 25.3746 25.9667 24.8698 27.2963 23.9297C28.6259 22.9896 29.6314 21.6605 30.1744 20.1253H47.25C47.9462 20.1253 48.6139 19.8487 49.1062 19.3564C49.5984 18.8642 49.875 18.1965 49.875 17.5003C49.875 16.8041 49.5984 16.1364 49.1062 15.6441C48.6139 15.1518 47.9462 14.8753 47.25 14.8753H30.1744C29.6314 13.3401 28.6259 12.0109 27.2963 11.0709C25.9667 10.1308 24.3784 9.62598 22.75 9.62598C21.1216 9.62598 19.5333 10.1308 18.2037 11.0709C16.8741 12.0109 15.8686 13.3401 15.3256 14.8753H8.75C8.05381 14.8753 7.38613 15.1518 6.89384 15.6441C6.40156 16.1364 6.125 16.8041 6.125 17.5003C6.125 18.1965 6.40156 18.8642 6.89384 19.3564C7.38613 19.8487 8.05381 20.1253 8.75 20.1253ZM22.75 14.8753C23.2692 14.8753 23.7767 15.0292 24.2084 15.3177C24.6401 15.6061 24.9765 16.0161 25.1752 16.4957C25.3739 16.9754 25.4258 17.5032 25.3246 18.0124C25.2233 18.5216 24.9733 18.9893 24.6062 19.3564C24.239 19.7235 23.7713 19.9736 23.2621 20.0748C22.7529 20.1761 22.2251 20.1241 21.7455 19.9255C21.2658 19.7268 20.8558 19.3903 20.5674 18.9587C20.279 18.527 20.125 18.0195 20.125 17.5003C20.125 16.8041 20.4016 16.1364 20.8938 15.6441C21.3861 15.1518 22.0538 14.8753 22.75 14.8753ZM47.25 35.8753H44.1744C43.6314 34.3401 42.6259 33.0109 41.2963 32.0709C39.9667 31.1308 38.3784 30.626 36.75 30.626C35.1216 30.626 33.5333 31.1308 32.2037 32.0709C30.8741 33.0109 29.8686 34.3401 29.3256 35.8753H8.75C8.05381 35.8753 7.38613 36.1518 6.89384 36.6441C6.40156 37.1364 6.125 37.8041 6.125 38.5003C6.125 39.1965 6.40156 39.8641 6.89384 40.3564C7.38613 40.8487 8.05381 41.1253 8.75 41.1253H29.3256C29.8686 42.6605 30.8741 43.9896 32.2037 44.9297C33.5333 45.8698 35.1216 46.3746 36.75 46.3746C38.3784 46.3746 39.9667 45.8698 41.2963 44.9297C42.6259 43.9896 43.6314 42.6605 44.1744 41.1253H47.25C47.9462 41.1253 48.6139 40.8487 49.1062 40.3564C49.5984 39.8641 49.875 39.1965 49.875 38.5003C49.875 37.8041 49.5984 37.1364 49.1062 36.6441C48.6139 36.1518 47.9462 35.8753 47.25 35.8753ZM36.75 41.1253C36.2308 41.1253 35.7233 40.9713 35.2916 40.6829C34.8599 40.3945 34.5235 39.9845 34.3248 39.5048C34.1261 39.0252 34.0742 38.4974 34.1754 37.9882C34.2767 37.479 34.5267 37.0112 34.8938 36.6441C35.261 36.277 35.7287 36.027 36.2379 35.9257C36.7471 35.8244 37.2749 35.8764 37.7545 36.0751C38.2342 36.2738 38.6442 36.6102 38.9326 37.0419C39.221 37.4736 39.375 37.9811 39.375 38.5003C39.375 39.1965 39.0984 39.8641 38.6062 40.3564C38.1139 40.8487 37.4462 41.1253 36.75 41.1253Z" fill="#707480"/>
</svg>
