<svg width="64" height="64" viewBox="0 0 64 64" fill="none" xmlns="http://www.w3.org/2000/svg">
<path d="M49.7494 31.3275L37.2794 26.73L32.6719 14.25C32.3195 13.2944 31.6827 12.4699 30.8472 11.8875C30.0117 11.3051 29.0178 10.9928 27.9994 10.9928C26.9809 10.9928 25.987 11.3051 25.1515 11.8875C24.316 12.4699 23.6792 13.2944 23.3269 14.25L18.7294 26.73L6.24936 31.3275C5.2938 31.6798 4.46925 32.3167 3.88684 33.1521C3.30444 33.9876 2.99219 34.9816 2.99219 36C2.99219 37.0184 3.30444 38.0124 3.88684 38.8479C4.46925 39.6833 5.2938 40.3202 6.24936 40.6725L18.7194 45.27L23.3269 57.75C23.6792 58.7056 24.316 59.5301 25.1515 60.1125C25.987 60.6949 26.9809 61.0072 27.9994 61.0072C29.0178 61.0072 30.0117 60.6949 30.8472 60.1125C31.6827 59.5301 32.3195 58.7056 32.6719 57.75L37.2694 45.28L49.7494 40.6725C50.7049 40.3202 51.5295 39.6833 52.1119 38.8479C52.6943 38.0124 53.0065 37.0184 53.0065 36C53.0065 34.9816 52.6943 33.9876 52.1119 33.1521C51.5295 32.3167 50.7049 31.6798 49.7494 31.3275ZM33.9044 40.1175C33.4971 40.2676 33.1273 40.5042 32.8205 40.8111C32.5136 41.118 32.2769 41.4878 32.1269 41.895L27.9994 53.07L23.8819 41.895C23.7318 41.4878 23.4951 41.118 23.1883 40.8111C22.8814 40.5042 22.5116 40.2676 22.1044 40.1175L10.9294 36L22.1044 31.8825C22.5116 31.7324 22.8814 31.4958 23.1883 31.1889C23.4951 30.882 23.7318 30.5122 23.8819 30.105L27.9994 18.93L32.1169 30.105C32.2669 30.5122 32.5036 30.882 32.8105 31.1889C33.1173 31.4958 33.4871 31.7324 33.8944 31.8825L45.0694 36L33.9044 40.1175ZM34.9994 10C34.9994 9.20435 35.3154 8.44129 35.878 7.87868C36.4407 7.31607 37.2037 7 37.9994 7H40.9994V4C40.9994 3.20435 41.3154 2.44129 41.878 1.87868C42.4407 1.31607 43.2037 1 43.9994 1C44.795 1 45.5581 1.31607 46.1207 1.87868C46.6833 2.44129 46.9994 3.20435 46.9994 4V7H49.9994C50.795 7 51.5581 7.31607 52.1207 7.87868C52.6833 8.44129 52.9994 9.20435 52.9994 10C52.9994 10.7956 52.6833 11.5587 52.1207 12.1213C51.5581 12.6839 50.795 13 49.9994 13H46.9994V16C46.9994 16.7956 46.6833 17.5587 46.1207 18.1213C45.5581 18.6839 44.795 19 43.9994 19C43.2037 19 42.4407 18.6839 41.878 18.1213C41.3154 17.5587 40.9994 16.7956 40.9994 16V13H37.9994C37.2037 13 36.4407 12.6839 35.878 12.1213C35.3154 11.5587 34.9994 10.7956 34.9994 10ZM62.9994 22C62.9994 22.7956 62.6833 23.5587 62.1207 24.1213C61.5581 24.6839 60.795 25 59.9994 25H58.9994V26C58.9994 26.7956 58.6833 27.5587 58.1207 28.1213C57.5581 28.6839 56.795 29 55.9994 29C55.2037 29 54.4407 28.6839 53.878 28.1213C53.3154 27.5587 52.9994 26.7956 52.9994 26V25H51.9994C51.2037 25 50.4407 24.6839 49.878 24.1213C49.3154 23.5587 48.9994 22.7956 48.9994 22C48.9994 21.2044 49.3154 20.4413 49.878 19.8787C50.4407 19.3161 51.2037 19 51.9994 19H52.9994V18C52.9994 17.2044 53.3154 16.4413 53.878 15.8787C54.4407 15.3161 55.2037 15 55.9994 15C56.795 15 57.5581 15.3161 58.1207 15.8787C58.6833 16.4413 58.9994 17.2044 58.9994 18V19H59.9994C60.795 19 61.5581 19.3161 62.1207 19.8787C62.6833 20.4413 62.9994 21.2044 62.9994 22Z" fill="white"/>
</svg>
