<svg width="32" height="31" viewBox="0 0 32 31" fill="none" xmlns="http://www.w3.org/2000/svg">
<path d="M30.6882 13.8992L24.36 19.3596L26.288 27.5257C26.3944 27.969 26.367 28.4339 26.2093 28.8617C26.0516 29.2894 25.7706 29.6608 25.402 29.929C25.0333 30.1971 24.5934 30.35 24.1379 30.3683C23.6824 30.3866 23.2317 30.2694 22.8427 30.0317L15.7411 25.6611L8.63534 30.0317C8.24641 30.2681 7.79624 30.3841 7.34151 30.3651C6.88677 30.3462 6.44782 30.1931 6.07991 29.9252C5.712 29.6572 5.43159 29.2864 5.27399 28.8595C5.11639 28.4325 5.08864 27.9685 5.19425 27.5257L7.12925 19.3596L0.801123 13.8992C0.457011 13.6018 0.208143 13.2096 0.0855987 12.7716C-0.0369454 12.3336 -0.0277341 11.8692 0.112082 11.4364C0.251898 11.0036 0.516123 10.6216 0.871758 10.338C1.22739 10.0545 1.65868 9.88203 2.11175 9.84215L10.4086 9.17277L13.6092 1.42715C13.7825 1.00502 14.0773 0.643935 14.4563 0.389811C14.8353 0.135687 15.2813 0 15.7376 0C16.1939 0 16.6399 0.135687 17.0189 0.389811C17.3979 0.643935 17.6927 1.00502 17.866 1.42715L21.0652 9.17277L29.3621 9.84215C29.816 9.88054 30.2486 10.0521 30.6055 10.3352C30.9624 10.6183 31.2279 11.0005 31.3686 11.4338C31.5092 11.8671 31.5189 12.3324 31.3964 12.7712C31.2739 13.21 31.0246 13.6028 30.6797 13.9006L30.6882 13.8992Z" fill="url(#paint0_linear_4003_3120)"/>
<defs>
<linearGradient id="paint0_linear_4003_3120" x1="15.7408" y1="0" x2="15.7408" y2="30.3701" gradientUnits="userSpaceOnUse">
<stop stop-color="#FFE371"/>
<stop offset="1" stop-color="#F9A33A"/>
</linearGradient>
</defs>
</svg>
