<svg width="72" height="72" viewBox="0 0 72 72" fill="none" xmlns="http://www.w3.org/2000/svg">
<g filter="url(#filter0_i_66_2320)">
<path d="M36 5.625C29.9924 5.625 24.1197 7.40646 19.1246 10.7441C14.1294 14.0818 10.2362 18.8257 7.93717 24.376C5.63816 29.9263 5.03663 36.0337 6.20866 41.9259C7.38069 47.818 10.2736 53.2304 14.5216 57.4784C18.7697 61.7264 24.182 64.6193 30.0741 65.7914C35.9663 66.9634 42.0737 66.3619 47.624 64.0628C53.1743 61.7638 57.9183 57.8706 61.2559 52.8754C64.5936 47.8803 66.375 42.0076 66.375 36C66.3661 27.9468 63.163 20.226 57.4685 14.5315C51.774 8.83702 44.0532 5.63393 36 5.625ZM22.3791 55.2853C23.9459 53.143 25.9958 51.4005 28.3625 50.1993C30.7292 48.9981 33.3459 48.372 36 48.372C38.6541 48.372 41.2708 48.9981 43.6375 50.1993C46.0042 51.4005 48.0542 53.143 49.6209 55.2853C45.6401 58.1085 40.8803 59.6249 36 59.6249C31.1197 59.6249 26.36 58.1085 22.3791 55.2853ZM28.125 33.75C28.125 32.1925 28.5869 30.6699 29.4522 29.3749C30.3175 28.0798 31.5474 27.0705 32.9864 26.4744C34.4254 25.8784 36.0087 25.7225 37.5363 26.0263C39.0639 26.3302 40.4671 27.0802 41.5685 28.1815C42.6698 29.2829 43.4198 30.6861 43.7237 32.2137C44.0276 33.7413 43.8716 35.3247 43.2756 36.7636C42.6795 38.2026 41.6702 39.4325 40.3751 40.2978C39.0801 41.1631 37.5575 41.625 36 41.625C33.9114 41.625 31.9084 40.7953 30.4315 39.3185C28.9547 37.8416 28.125 35.8386 28.125 33.75ZM54.5625 50.6081C52.375 47.8258 49.5867 45.5741 46.4063 44.0213C48.4332 41.9687 49.8079 39.3625 50.3573 36.5306C50.9067 33.6986 50.6064 30.7675 49.4941 28.1058C48.3818 25.4442 46.5072 23.1709 44.1061 21.572C41.705 19.9731 38.8847 19.12 36 19.12C33.1153 19.12 30.295 19.9731 27.8939 21.572C25.4928 23.1709 23.6182 25.4442 22.5059 28.1058C21.3936 30.7675 21.0933 33.6986 21.6427 36.5306C22.1922 39.3625 23.5668 41.9687 25.5938 44.0213C22.4133 45.5741 19.625 47.8258 17.4375 50.6081C14.6898 47.125 12.9784 42.9386 12.4992 38.5281C12.02 34.1176 12.7923 29.6613 14.7278 25.6693C16.6632 21.6773 19.6836 18.311 23.4432 15.9556C27.2027 13.6003 31.5495 12.3511 35.986 12.3511C40.4224 12.3511 44.7692 13.6003 48.5287 15.9556C52.2883 18.311 55.3087 21.6773 57.2442 25.6693C59.1796 29.6613 59.9519 34.1176 59.4727 38.5281C58.9935 42.9386 57.2821 47.125 54.5344 50.6081H54.5625Z" fill="#07112E" fill-opacity="0.06"/>
</g>
<defs>
<filter id="filter0_i_66_2320" x="0" y="0" width="72" height="76" filterUnits="userSpaceOnUse" color-interpolation-filters="sRGB">
<feFlood flood-opacity="0" result="BackgroundImageFix"/>
<feBlend mode="normal" in="SourceGraphic" in2="BackgroundImageFix" result="shape"/>
<feColorMatrix in="SourceAlpha" type="matrix" values="0 0 0 0 0 0 0 0 0 0 0 0 0 0 0 0 0 0 127 0" result="hardAlpha"/>
<feOffset dy="4"/>
<feGaussianBlur stdDeviation="5"/>
<feComposite in2="hardAlpha" operator="arithmetic" k2="-1" k3="1"/>
<feColorMatrix type="matrix" values="0 0 0 0 0.0431373 0 0 0 0 0.0745098 0 0 0 0 0.141176 0 0 0 0.64 0"/>
<feBlend mode="normal" in2="shape" result="effect1_innerShadow_66_2320"/>
</filter>
</defs>
</svg>
