<svg width="25" height="25" viewBox="0 0 25 25" fill="none" xmlns="http://www.w3.org/2000/svg">
<path d="M12.022 1.87842C10.0158 1.87842 8.05465 2.47333 6.38654 3.58792C4.71843 4.70252 3.4183 6.28673 2.65056 8.14023C1.88281 9.99373 1.68194 12.0333 2.07333 14.0009C2.46472 15.9686 3.43081 17.776 4.84941 19.1946C6.26802 20.6132 8.07544 21.5793 10.0431 21.9707C12.0108 22.3621 14.0503 22.1612 15.9038 21.3935C17.7573 20.6257 19.3415 19.3256 20.4561 17.6575C21.5707 15.9894 22.1656 14.0282 22.1656 12.022C22.1626 9.33268 21.093 6.75435 19.1913 4.8527C17.2897 2.95106 14.7114 1.8814 12.022 1.87842ZM7.47337 18.4623C7.99658 17.7469 8.68117 17.1649 9.47152 16.7638C10.2619 16.3627 11.1357 16.1536 12.022 16.1536C12.9083 16.1536 13.7822 16.3627 14.5725 16.7638C15.3629 17.1649 16.0475 17.7469 16.5707 18.4623C15.2413 19.405 13.6518 19.9114 12.022 19.9114C10.3923 19.9114 8.80276 19.405 7.47337 18.4623ZM9.3922 11.2706C9.3922 10.7505 9.54643 10.2421 9.8354 9.80959C10.1244 9.37712 10.5351 9.04004 11.0156 8.841C11.4962 8.64195 12.0249 8.58988 12.5351 8.69135C13.0452 8.79282 13.5138 9.04329 13.8816 9.41107C14.2494 9.77886 14.4998 10.2474 14.6013 10.7576C14.7028 11.2677 14.6507 11.7965 14.4517 12.277C14.2526 12.7576 13.9155 13.1683 13.4831 13.4573C13.0506 13.7462 12.5421 13.9005 12.022 13.9005C11.3245 13.9005 10.6556 13.6234 10.1625 13.1302C9.66927 12.637 9.3922 11.9681 9.3922 11.2706ZM18.2209 16.9003C17.4904 15.9712 16.5592 15.2192 15.4971 14.7007C16.174 14.0152 16.6331 13.1449 16.8166 12.1992C17 11.2535 16.8998 10.2746 16.5283 9.3858C16.1569 8.49695 15.5308 7.7378 14.729 7.20386C13.9272 6.66992 12.9854 6.38503 12.022 6.38503C11.0587 6.38503 10.1169 6.66992 9.31503 7.20386C8.5132 7.7378 7.88718 8.49695 7.51573 9.3858C7.14428 10.2746 7.04399 11.2535 7.22747 12.1992C7.41095 13.1449 7.87001 14.0152 8.5469 14.7007C7.4848 15.2192 6.55367 15.9712 5.82315 16.9003C4.90558 15.7372 4.33406 14.3391 4.17402 12.8663C4.01399 11.3934 4.2719 9.90524 4.91824 8.57213C5.56458 7.23903 6.57323 6.11485 7.82871 5.32829C9.0842 4.54173 10.5358 4.12457 12.0173 4.12457C13.4989 4.12457 14.9504 4.54173 16.2059 5.32829C17.4614 6.11485 18.4701 7.23903 19.1164 8.57213C19.7627 9.90524 20.0207 11.3934 19.8606 12.8663C19.7006 14.3391 19.1291 15.7372 18.2115 16.9003H18.2209Z" fill="white"/>
</svg>
