<svg width="72" height="72" viewBox="0 0 72 72" fill="none" xmlns="http://www.w3.org/2000/svg">
<g filter="url(#filter0_i_66_2311)">
<path d="M35.2071 44.1393C38.0339 41.7633 40.0614 38.5755 41.0149 35.008C41.9683 31.4406 41.8015 27.6662 40.5371 24.1968C39.2727 20.7274 36.9718 17.7308 33.9465 15.6134C30.9212 13.496 27.3179 12.3604 23.6253 12.3604C19.9326 12.3604 16.3293 13.496 13.304 15.6134C10.2787 17.7308 7.97784 20.7274 6.7134 24.1968C5.44897 27.6662 5.28217 31.4406 6.23563 35.008C7.18909 38.5755 9.21666 41.7633 12.0434 44.1393C7.62939 46.1352 3.80421 49.2349 0.936818 53.1393C0.407214 53.861 0.185987 54.7635 0.321804 55.6483C0.457622 56.5331 0.939358 57.3277 1.66104 57.8573C2.38272 58.3869 3.28522 58.6081 4.17001 58.4723C5.0548 58.3365 5.8494 57.8548 6.37901 57.1331C8.3639 54.4222 10.9599 52.2174 13.9564 50.6976C16.9528 49.1778 20.2654 48.3857 23.6253 48.3857C26.9851 48.3857 30.2977 49.1778 33.2941 50.6976C36.2906 52.2174 38.8866 54.4222 40.8715 57.1331C41.4011 57.8551 42.1959 58.3372 43.0809 58.4733C43.966 58.6094 44.8688 58.3883 45.5909 57.8587C46.3129 57.3291 46.795 56.5343 46.9311 55.6493C47.0672 54.7642 46.8461 53.8614 46.3165 53.1393C43.4474 49.2354 39.6215 46.1359 35.2071 44.1393ZM12.3753 30.3749C12.3753 28.1499 13.0351 25.9748 14.2712 24.1248C15.5074 22.2747 17.2644 20.8328 19.3201 19.9813C21.3757 19.1298 23.6377 18.907 25.82 19.3411C28.0023 19.7752 30.0069 20.8467 31.5802 22.42C33.1535 23.9933 34.225 25.9979 34.6591 28.1802C35.0932 30.3625 34.8704 32.6245 34.0189 34.6801C33.1674 36.7358 31.7255 38.4928 29.8754 39.729C28.0254 40.9651 25.8503 41.6249 23.6253 41.6249C20.6416 41.6249 17.7801 40.4397 15.6703 38.3299C13.5605 36.2201 12.3753 33.3586 12.3753 30.3749ZM70.3409 57.8446C69.9836 58.1072 69.5781 58.2968 69.1475 58.4025C68.7169 58.5083 68.2697 58.5282 67.8314 58.4611C67.3932 58.3939 66.9724 58.2411 66.5932 58.0113C66.214 57.7815 65.8838 57.4793 65.6215 57.1218C63.6317 54.4161 61.0347 52.2152 58.0393 50.696C55.0439 49.1768 51.7338 48.3818 48.3753 48.3749C47.4801 48.3749 46.6217 48.0194 45.9888 47.3864C45.3558 46.7535 45.0003 45.8951 45.0003 44.9999C45.0003 44.1048 45.3558 43.2464 45.9888 42.6135C46.6217 41.9805 47.4801 41.6249 48.3753 41.6249C49.9743 41.6221 51.5543 41.2784 53.01 40.6168C54.4657 39.9552 55.7637 38.9909 56.8174 37.7881C57.871 36.5853 58.6562 35.1718 59.1205 33.6416C59.5848 32.1115 59.7176 30.5 59.51 28.9145C59.3024 27.329 58.7592 25.806 57.9167 24.447C57.0741 23.088 55.9515 21.9242 54.6237 21.0332C53.2959 20.1422 51.7934 19.5446 50.2165 19.28C48.6395 19.0155 47.0242 19.0901 45.4784 19.499C45.0466 19.6239 44.5943 19.6613 44.1479 19.6091C43.7015 19.5568 43.27 19.4159 42.8788 19.1946C42.4876 18.9733 42.1445 18.6761 41.8697 18.3204C41.5949 17.9648 41.3939 17.5578 41.2785 17.1234C41.1632 16.689 41.1357 16.236 41.1978 15.7908C41.2599 15.3457 41.4102 14.9174 41.64 14.5312C41.8699 14.1449 42.1745 13.8085 42.5362 13.5415C42.8978 13.2746 43.3091 13.0826 43.7459 12.9768C47.6987 11.9295 51.8904 12.2592 55.6308 13.9119C59.3713 15.5646 62.4375 18.4416 64.3247 22.0693C66.2119 25.6971 66.8076 29.8593 66.0138 33.8707C65.2199 37.8822 63.0838 41.5038 59.9571 44.1393C64.3711 46.1352 68.1963 49.2349 71.0637 53.1393C71.5895 53.8599 71.8086 54.7594 71.6732 55.6411C71.5378 56.5228 71.0587 57.3151 70.3409 57.8446Z" fill="#07112E" fill-opacity="0.06"/>
</g>
<defs>
<filter id="filter0_i_66_2311" x="0" y="0" width="72" height="76" filterUnits="userSpaceOnUse" color-interpolation-filters="sRGB">
<feFlood flood-opacity="0" result="BackgroundImageFix"/>
<feBlend mode="normal" in="SourceGraphic" in2="BackgroundImageFix" result="shape"/>
<feColorMatrix in="SourceAlpha" type="matrix" values="0 0 0 0 0 0 0 0 0 0 0 0 0 0 0 0 0 0 127 0" result="hardAlpha"/>
<feOffset dy="4"/>
<feGaussianBlur stdDeviation="5"/>
<feComposite in2="hardAlpha" operator="arithmetic" k2="-1" k3="1"/>
<feColorMatrix type="matrix" values="0 0 0 0 0.0431373 0 0 0 0 0.0745098 0 0 0 0 0.141176 0 0 0 0.64 0"/>
<feBlend mode="normal" in2="shape" result="effect1_innerShadow_66_2311"/>
</filter>
</defs>
</svg>
