<svg width="32" height="25" viewBox="0 0 32 25" fill="none" xmlns="http://www.w3.org/2000/svg">
<g clip-path="url(#clip0_1112_2818)" filter="url(#filter0_d_1112_2818)">
<path d="M15.6702 14.7401C16.6142 13.9467 17.2912 12.8821 17.6097 11.6908C17.9281 10.4994 17.8724 9.23902 17.4501 8.08042C17.0278 6.92182 16.2595 5.92112 15.2492 5.21403C14.2389 4.50695 13.0356 4.12769 11.8025 4.12769C10.5693 4.12769 9.36601 4.50695 8.35573 5.21403C7.34545 5.92112 6.57708 6.92182 6.15482 8.08042C5.73257 9.23902 5.67687 10.4994 5.99527 11.6908C6.31368 12.8821 6.99078 13.9467 7.93475 14.7401C6.46071 15.4066 5.18331 16.4418 4.22576 17.7456C4.0489 17.9866 3.97502 18.288 4.02038 18.5835C4.06573 18.879 4.22661 19.1443 4.46761 19.3212C4.70861 19.498 5.01 19.5719 5.30547 19.5266C5.60094 19.4812 5.86629 19.3203 6.04315 19.0793C6.706 18.1741 7.57292 17.4378 8.57358 16.9302C9.57424 16.4227 10.6805 16.1582 11.8025 16.1582C12.9245 16.1582 14.0307 16.4227 15.0313 16.9302C16.032 17.4378 16.8989 18.1741 17.5618 19.0793C17.7386 19.3205 18.004 19.4815 18.2996 19.5269C18.5952 19.5723 18.8967 19.4985 19.1378 19.3217C19.3789 19.1448 19.5399 18.8794 19.5853 18.5838C19.6308 18.2883 19.557 17.9868 19.3801 17.7456C18.422 16.4419 17.1443 15.4069 15.6702 14.7401ZM8.04558 10.1436C8.04558 9.40054 8.26591 8.67418 8.67872 8.05637C9.09154 7.43855 9.67828 6.95702 10.3648 6.67267C11.0512 6.38832 11.8066 6.31392 12.5354 6.45888C13.2642 6.60384 13.9336 6.96165 14.459 7.48706C14.9844 8.01247 15.3422 8.68188 15.4872 9.41065C15.6321 10.1394 15.5577 10.8948 15.2734 11.5813C14.989 12.2678 14.5075 12.8545 13.8897 13.2673C13.2719 13.6801 12.5455 13.9005 11.8025 13.9005C10.8061 13.9005 9.8505 13.5047 9.14594 12.8001C8.44139 12.0955 8.04558 11.14 8.04558 10.1436ZM27.4029 19.317C27.2836 19.4046 27.1482 19.4679 27.0044 19.5033C26.8606 19.5386 26.7113 19.5452 26.5649 19.5228C26.4186 19.5004 26.2781 19.4494 26.1514 19.3726C26.0248 19.2959 25.9145 19.195 25.8269 19.0756C25.1624 18.172 24.2952 17.437 23.2949 16.9297C22.2946 16.4224 21.1892 16.1569 20.0676 16.1546C19.7687 16.1546 19.482 16.0359 19.2707 15.8245C19.0593 15.6131 18.9405 15.3265 18.9405 15.0275C18.9405 14.7286 19.0593 14.4419 19.2707 14.2306C19.482 14.0192 19.7687 13.9005 20.0676 13.9005C20.6016 13.8995 21.1292 13.7847 21.6154 13.5638C22.1015 13.3429 22.535 13.0208 22.8868 12.6192C23.2387 12.2175 23.5009 11.7455 23.6559 11.2345C23.811 10.7235 23.8553 10.1853 23.786 9.65587C23.7167 9.12641 23.5353 8.6178 23.2539 8.16397C22.9726 7.71013 22.5977 7.32149 22.1543 7.02395C21.7108 6.72641 21.2091 6.52682 20.6825 6.43847C20.1559 6.35013 19.6164 6.37506 19.1002 6.51161C18.956 6.55332 18.805 6.56582 18.6559 6.54836C18.5068 6.5309 18.3627 6.48384 18.2321 6.40995C18.1015 6.33605 17.9869 6.2368 17.8951 6.11803C17.8034 5.99926 17.7362 5.86336 17.6977 5.71829C17.6592 5.57323 17.65 5.42193 17.6707 5.27328C17.6915 5.12462 17.7417 4.98161 17.8184 4.85262C17.8952 4.72363 17.9969 4.61128 18.1177 4.52214C18.2384 4.43301 18.3758 4.36889 18.5217 4.33355C19.8417 3.98379 21.2415 4.09392 22.4906 4.64582C23.7397 5.19772 24.7636 6.15849 25.3939 7.36995C26.0241 8.58142 26.223 9.97137 25.9579 11.311C25.6928 12.6506 24.9795 13.86 23.9353 14.7401C25.4094 15.4066 26.6868 16.4418 27.6443 17.7456C27.8199 17.9863 27.8931 18.2867 27.8479 18.5811C27.8026 18.8756 27.6427 19.1401 27.4029 19.317Z" fill="white"/>
</g>
<defs>
<filter id="filter0_d_1112_2818" x="-0.0945053" y="-2.67156" width="32.0588" height="32.0588" filterUnits="userSpaceOnUse" color-interpolation-filters="sRGB">
<feFlood flood-opacity="0" result="BackgroundImageFix"/>
<feColorMatrix in="SourceAlpha" type="matrix" values="0 0 0 0 0 0 0 0 0 0 0 0 0 0 0 0 0 0 127 0" result="hardAlpha"/>
<feOffset dy="1.33578"/>
<feGaussianBlur stdDeviation="2.00367"/>
<feColorMatrix type="matrix" values="0 0 0 0 0.0431373 0 0 0 0 0.0745098 0 0 0 0 0.141176 0 0 0 0.24 0"/>
<feBlend mode="normal" in2="BackgroundImageFix" result="effect1_dropShadow_1112_2818"/>
<feBlend mode="normal" in="SourceGraphic" in2="effect1_dropShadow_1112_2818" result="shape"/>
</filter>
<clipPath id="clip0_1112_2818">
<rect width="24.0441" height="24.0441" fill="white" transform="translate(3.91284)"/>
</clipPath>
</defs>
</svg>
